<svg width="12" height="12" viewBox="0 0 12 12" fill="none" xmlns="http://www.w3.org/2000/svg">
<g clip-path="url(#clip0_160_977)">
<path fill-rule="evenodd" clip-rule="evenodd" d="M5.9975 0C2.69 0 0 2.6925 0 6C0 7.3125 0.4225 8.53 1.1425 9.5175L0.395 11.7475L2.7 11.01C3.6475 11.6375 4.78 12 6 12C9.3075 12 11.9975 9.3075 11.9975 6C11.9975 2.6925 9.31 0 6.0025 0H6H5.9975ZM4.3225 3.0475C4.205 2.77 4.1175 2.7575 3.9425 2.75C3.8825 2.7475 3.815 2.7425 3.7425 2.7425C3.5125 2.7425 3.2725 2.81 3.13 2.9575C2.9525 3.1375 2.5175 3.5575 2.5175 4.4175C2.5175 5.2775 3.145 6.11 3.23 6.2275C3.3175 6.345 4.4525 8.135 6.2175 8.865C7.5975 9.4375 8.005 9.3825 8.32 9.3175C8.7775 9.2175 9.3525 8.88 9.4975 8.47C9.6425 8.06 9.6425 7.7125 9.6 7.6375C9.5575 7.5625 9.4425 7.52 9.265 7.4325C9.0875 7.345 8.2325 6.92 8.07 6.865C7.9125 6.805 7.76 6.8275 7.64 6.995C7.47 7.2325 7.305 7.47 7.17 7.615C7.065 7.7275 6.8925 7.7425 6.7475 7.6825C6.5525 7.6025 6.01 7.41 5.34 6.815C4.8225 6.3525 4.47 5.7775 4.3675 5.605C4.265 5.4275 4.3575 5.3275 4.4375 5.23C4.525 5.12 4.61 5.0425 4.6975 4.94C4.785 4.8375 4.835 4.785 4.8925 4.665C4.9525 4.5475 4.91 4.4275 4.8675 4.34C4.825 4.2525 4.4725 3.39 4.3275 3.0425L4.3225 3.0475Z" fill="#009BDD"/>
</g>
<defs>
<clipPath id="clip0_160_977">
<rect width="12" height="12" fill="white"/>
</clipPath>
</defs>
</svg>
