<svg width="116" height="65" viewBox="0 0 116 65" fill="none" xmlns="http://www.w3.org/2000/svg">
<path d="M89.1017 62.9722C82.7869 62.9722 76.4722 63.0473 70.1575 62.9507C63.3852 62.8542 61.3947 61.2456 61.3261 55.0793C61.1659 40.2586 61.2689 25.4379 61.2689 10.6173C61.2689 6.28476 63.6369 4.18284 68.2357 4.16139C77.9594 4.1185 87.6946 4.11849 97.4183 4.00053C100.541 3.96836 102.143 5.40538 102.795 8.06495C106.856 24.5049 110.94 40.9449 114.944 57.4064C115.813 60.9882 114.075 62.9186 110.105 62.9293C103.104 62.9507 96.1142 62.9293 89.1131 62.9293C89.1017 62.9507 89.1017 62.9615 89.1017 62.9722Z" fill="white"/>
<path d="M28.6609 31.9469C22.4931 31.9469 16.3252 31.7872 10.1688 32.0001C5.68622 32.1597 3.49654 30.3506 2.94624 26.3706C2.36156 22.1353 1.60493 17.9212 1.03171 13.6858C-0.206451 4.5872 4.58567 -0.744268 14.319 0.0964217C25.7146 1.07545 37.0185 2.89517 48.3453 4.49142C52.7018 5.10864 54.8227 7.67327 54.7654 11.8022C54.6966 16.3888 54.6393 20.986 54.7425 25.5725C54.8342 29.7866 52.5184 31.7127 48.1963 31.7553C41.6845 31.8192 35.4851 31.9469 28.9734 31.9469C28.8596 31.9469 28.7585 31.9469 28.6609 31.9469Z" fill="white"/>
<path d="M53.6238 48.5048C53.7929 62.251 53.0489 62.8629 38.7216 63.3437C29.3203 63.6606 19.9303 64.349 10.5516 64.95C4.7575 65.3215 2.80736 63.6824 3.01026 58.0659C3.17935 53.5312 3.65279 48.9965 3.84442 44.4618C4.00223 40.7248 5.95237 38.7688 9.7512 38.5175C22.6582 37.6652 35.5653 36.8238 48.4836 36.0152C51.5159 35.8295 53.3533 37.3483 53.5787 40.2221C53.7929 42.9757 53.6238 45.7512 53.6238 48.5048Z" fill="white"/>
</svg>
