<svg width="44" height="40" viewBox="0 0 44 40" fill="none" xmlns="http://www.w3.org/2000/svg">
<path d="M24.9844 0.000124274C24.8534 0.0425065 24.7159 0.0303973 24.5816 0.0513132C23.7827 0.174056 23.1125 0.523572 22.6129 1.17031C22.2883 1.59083 22.104 2.07135 22.0253 2.59425C21.9939 2.80396 21.9862 3.01477 21.9862 3.22613C21.9862 9.72106 21.9868 16.216 21.9862 22.7104C21.9857 27.3867 21.9829 32.0631 21.9813 36.7389C21.9813 37.1033 22.0204 37.4594 22.1843 37.7924C22.1975 37.8194 22.2063 37.8502 22.2113 37.8799C22.2212 37.941 22.1959 37.9839 22.1332 37.9961C22.0946 38.0038 22.0545 38.0109 22.016 38.0087C21.6286 37.9861 21.2418 38.0049 20.8544 38.0049C17.3022 38.0038 13.75 38.0038 10.1978 38.0049C9.28661 38.0049 8.37545 38.0104 7.46428 38.0131C7.38505 38.0131 7.30527 38.0142 7.22714 38.006C7.05657 37.9873 7.0054 37.9333 6.98944 37.7643C6.98559 37.7253 6.9856 37.6851 6.9856 37.6454C6.98725 35.5362 6.9889 33.427 6.99055 31.3184C6.99165 29.993 6.9933 28.6676 6.99385 27.3422C6.99385 26.827 6.9911 26.3118 6.99055 25.7966C6.98835 24.1938 6.98725 22.5909 6.98505 20.9881C6.98505 20.79 6.98009 20.5918 6.98009 20.3937C6.98009 20.0673 7.04116 20.0062 7.36414 20.0067C8.57903 20.0078 9.79392 20.01 11.0088 20.0122C11.5898 20.0133 12.1709 20.0166 12.7519 20.0172C14.7547 20.0177 16.7575 20.0172 18.7603 20.0172C18.9232 20.0172 19.086 20.0139 19.2456 19.9737C19.7325 19.8499 20.0346 19.4167 19.9933 18.9031C19.9554 18.4342 19.5631 18.0527 19.0783 18.0153C18.9996 18.0093 18.9199 18.0049 18.8412 18.0049C16.3674 18.0027 13.8936 18.0005 11.4204 17.9994C10.2671 17.9988 9.11385 17.9988 7.96058 17.9994C6.70608 18.0005 5.45158 18.0016 4.19708 18.0049C3.73049 18.006 3.26336 17.9983 2.79787 18.0203C2.131 18.0516 1.53127 18.2773 1.03607 18.7347C0.525463 19.2064 0.174419 19.775 0.0396156 20.4669C0.020359 20.566 0.0445671 20.6705 0 20.7658V37.2255C0.0445671 37.3207 0.020359 37.4242 0.0379677 37.5232C0.263008 38.7661 1.22314 39.7271 2.46389 39.9533C2.54037 39.9671 2.6229 39.9572 2.69388 39.9996H41.2269C41.3083 39.9605 41.3986 39.9666 41.4838 39.9511C42.8407 39.709 43.9571 38.5861 43.9736 36.9893C43.9846 35.9342 43.9752 34.8785 43.9763 33.8228C43.9763 33.7677 43.9576 33.7083 43.9994 33.6582V3.09127C43.9747 3.0621 43.9785 3.02632 43.9747 2.9911C43.9532 2.79019 43.9367 2.58929 43.896 2.39114C43.6413 1.13509 42.6371 0.207632 41.3644 0.0474603C41.2395 0.0314981 41.1108 0.0419561 40.9892 0.000124274H24.9844ZM23.9852 18.2531H23.983C23.983 16.1439 23.983 14.0352 23.983 11.926C23.983 9.9005 23.9813 7.87551 23.9808 5.84997C23.9808 5.56651 24.0353 5.50871 24.3181 5.50431C24.4985 5.50156 24.679 5.50816 24.8595 5.50871C26.136 5.51091 27.412 5.51422 28.6885 5.51367C31.8357 5.51311 34.9824 5.51036 38.1297 5.50871C39.2962 5.50871 40.4626 5.50871 41.6291 5.50871C41.6775 5.50871 41.7259 5.51036 41.7738 5.51642C41.902 5.53293 41.9537 5.58247 41.9697 5.70741C41.9779 5.77291 41.9796 5.83896 41.9796 5.90501C41.9785 6.84293 41.9763 7.78084 41.9746 8.7182C41.973 9.94233 41.9713 11.1665 41.9713 12.39C41.9719 16.5066 41.973 20.6238 41.9746 24.7403C41.9752 26.7042 41.9779 28.6676 41.9796 30.6315C41.9796 30.6887 41.9768 30.7459 41.9702 30.8026C41.9554 30.9298 41.9086 30.9799 41.7799 31.0008C41.7193 31.0107 41.6572 31.0118 41.5961 31.0118C40.6057 31.0118 39.6153 31.0101 38.6254 31.0085C37.415 31.0068 36.2045 31.0035 34.9945 31.0035C33.5948 31.0035 32.1956 31.0074 30.7958 31.0085C28.6434 31.0101 26.4914 31.0107 24.339 31.0123C24.2774 31.0123 24.2163 31.0068 24.1552 30.9947C24.0672 30.9771 24.0182 30.9232 23.9951 30.839C23.9808 30.7872 23.9802 30.7344 23.9797 30.6815C23.9797 30.5274 23.9813 30.3733 23.9813 30.2192C23.983 28.5635 23.9852 26.9084 23.9857 25.2528C23.9863 22.919 23.9857 20.5858 23.9857 18.252L23.9852 18.2531ZM33.1122 34.2141C33.9568 34.2141 34.8014 34.2119 35.646 34.2147C36.4647 34.2174 37.0573 34.9924 36.8499 35.7839C36.703 36.3437 36.2116 36.7213 35.6256 36.7218C34.0993 36.7229 32.573 36.7218 31.0467 36.7218C30.8839 36.7218 30.721 36.724 30.5587 36.7213C29.9056 36.7092 29.3603 36.1687 29.3416 35.5164C29.3207 34.7893 29.8775 34.2152 30.606 34.2147C31.4418 34.2136 32.2776 34.2147 33.1133 34.2147L33.1122 34.2141Z" fill="#121E2D"/>
<path d="M17.616 0.000124274C17.5736 0.035351 17.523 0.0193889 17.4762 0.0210402C17.1065 0.032599 16.7384 0.0601199 16.3703 0.0980987C15.7645 0.160296 15.173 0.291296 14.5864 0.451467C13.179 0.835659 11.8364 1.37452 10.5841 2.12969C8.51807 3.37639 6.93178 5.07773 5.78347 7.19519C5.20024 8.27126 4.75896 9.40457 4.41508 10.5775C4.39802 10.6353 4.40077 10.7272 4.34465 10.7382C4.27422 10.752 4.25001 10.659 4.21645 10.6072C4.14052 10.4889 4.07394 10.3645 4.00296 10.2429C3.94299 10.1405 3.88797 10.0343 3.82084 9.93683C3.55563 9.55208 3.17158 9.44255 2.74406 9.52181C2.23345 9.61648 1.82299 10.2363 2.02217 10.801C2.05188 10.8841 2.0893 10.9634 2.13331 11.0399C2.76772 12.1523 3.40212 13.2647 4.03708 14.3765C4.07394 14.4415 4.11246 14.5058 4.15482 14.5675C4.4701 15.0265 5.00216 15.1559 5.48966 14.8873C5.86711 14.6792 6.24126 14.4646 6.61541 14.2505C7.40167 13.8002 8.18683 13.3472 8.97365 12.897C9.20474 12.7649 9.37641 12.581 9.45289 12.3245C9.57944 11.9024 9.46499 11.5396 9.14587 11.2463C8.8482 10.9727 8.42178 10.9221 8.05038 11.1087C7.8501 11.2094 7.65642 11.3233 7.46109 11.434C7.07484 11.653 6.68914 11.8749 6.30288 12.0939C6.26216 12.117 6.222 12.1462 6.16258 12.1539C6.16643 11.9943 6.19449 11.8446 6.2187 11.6943C6.32544 11.03 6.54278 10.3981 6.78652 9.77445C7.24376 8.60371 7.83634 7.50783 8.6094 6.51323C9.83639 4.93352 11.3891 3.7837 13.2291 3.01311C14.1287 2.63608 15.0591 2.35977 16.0159 2.17538C16.4616 2.08951 16.9133 2.05208 17.3667 2.03392C17.6127 2.02401 17.8603 2.02842 18.1051 2.00695C18.5002 1.97227 18.7901 1.77137 18.9579 1.40864C19.2 0.887399 18.8859 0.127271 18.1909 0.0276452C18.148 0.0215906 18.1023 0.0254435 18.0633 -0.000976562H17.6143L17.616 0.000124274Z" fill="#121E2D"/>
</svg>
