<svg width="48" height="44" viewBox="0 0 48 44" fill="none" xmlns="http://www.w3.org/2000/svg">
<path d="M47.4202 24.1052C40.0874 16.3274 32.7632 8.54224 25.4357 0.759158C24.4886 -0.246956 23.3687 -0.254369 22.4291 0.741154C20.4952 2.79151 18.5646 4.84504 16.6318 6.89645C11.2962 12.5635 5.96381 18.2306 0.622843 23.8913C-0.0235712 24.5755 -0.177121 25.3073 0.210512 26.1641C0.572375 26.9637 1.26174 27.078 2.03271 27.0738C3.47909 27.0664 4.92654 27.0876 6.37185 27.0611C6.78096 27.0537 6.87223 27.1723 6.86901 27.561C6.85075 30.0095 6.85934 32.4581 6.85934 34.9056C6.85934 37.2663 6.85934 39.6259 6.85934 41.9865C6.85934 43.4141 7.42844 43.9818 8.85764 43.9829C9.21843 43.9829 9.57922 43.9829 9.94001 43.9829H13.8271C14.9631 43.9829 16.0992 43.9829 17.2353 43.9829H22.9316C22.5182 43.1377 22.2809 42.2015 22.267 41.2229C22.2638 40.9455 22.1242 40.8692 21.9116 40.7919C18.8159 39.664 17.1161 37.2599 17.1139 34.016C17.1139 32.4655 17.1107 30.9161 17.115 29.3656C17.1182 28.3235 17.523 27.8003 18.5549 27.5832C18.8427 27.5228 18.8298 27.3862 18.8287 27.1892C18.8266 26.2202 18.8234 25.2511 18.8287 24.2832C18.8352 23.1552 19.4784 22.4838 20.5425 22.4849C21.6066 22.4849 22.2487 23.1552 22.2552 24.2853C22.2616 25.2363 22.267 26.1874 22.2509 27.1384C22.2455 27.4434 22.3035 27.5769 22.6557 27.5663C23.5297 27.5408 24.4059 27.5419 25.28 27.5663C25.6215 27.5758 25.6988 27.4625 25.6934 27.1458C25.6741 26.1778 25.6805 25.2088 25.688 24.2397C25.6966 23.1521 26.3484 22.488 27.3921 22.4849C28.4391 22.4817 29.1016 23.1425 29.1134 24.2228C29.123 25.1918 29.1241 26.1609 29.1102 27.1289C29.1059 27.4127 29.151 27.543 29.4871 27.6012C30.2677 27.7357 30.7938 28.2472 30.8014 28.9896C30.825 31.1004 31.0161 33.227 30.7198 35.3208C30.3375 38.0245 28.7644 39.8758 26.1283 40.7728C25.7224 40.9116 25.6569 41.0948 25.6988 41.4485C25.8244 42.5203 26.4569 43.4491 27.3449 43.9818H28.8267C29.0468 43.9966 29.2691 44.0019 29.4946 43.9966C29.763 43.9903 30.0315 43.986 30.2999 43.9818H38.1782V43.9797C38.4799 43.9797 38.7827 43.9818 39.0845 43.9818C40.5953 43.9818 41.1504 43.4343 41.1504 41.9452C41.1504 37.172 41.159 32.3988 41.1375 27.6245C41.1354 27.1384 41.2804 27.0494 41.7324 27.059C43.196 27.0876 44.6606 27.0685 46.1252 27.0696C46.8479 27.0696 47.4578 26.8895 47.7971 26.1746C48.1708 25.3867 48.0097 24.7322 47.4181 24.1042L47.4202 24.1052Z" fill="#66BB46"/>
</svg>
