<svg width="54" height="36" viewBox="0 0 54 36" fill="none" xmlns="http://www.w3.org/2000/svg">
<path d="M53.739 31.7498L40.633 1.75235C40.1641 0.684031 39.1494 0 38.0348 0H28.8875L29.1181 2.16738C29.1642 2.61315 28.8183 2.99744 28.3725 2.99744H25.6359C25.1901 2.99744 24.8442 2.61315 24.8903 2.16738L25.1209 0H15.9736C14.8513 0 13.8367 0.684031 13.3754 1.75235L0.261711 31.7498C-0.606901 33.7327 0.776729 36 2.85986 36H21.3159L22.2845 26.8463C22.3614 26.0854 23.007 25.5013 23.7757 25.5013H30.225C30.9937 25.5013 31.6394 26.0777 31.7162 26.8463L32.6848 36H51.1409C53.224 36 54.6076 33.7404 53.739 31.7498ZM24.4137 6.67122C24.4522 6.28693 24.775 6.00256 25.1594 6.00256H28.8414C29.2257 6.00256 29.5485 6.29462 29.587 6.67122L30.0174 10.76C30.0866 11.421 29.5639 12.0051 28.8952 12.0051H25.0979C24.4291 12.0051 23.9064 11.4287 23.9756 10.76L24.4061 6.67122H24.4137ZM29.5947 22.4962H24.4137C23.5221 22.4962 22.8303 21.7276 22.9225 20.836L23.3991 16.3399C23.4759 15.579 24.1216 14.9949 24.8903 14.9949H29.1258C29.8945 14.9949 30.5401 15.5713 30.617 16.3399L31.0936 20.836C31.1858 21.7199 30.494 22.4962 29.6024 22.4962H29.5947Z" fill="#66BB46"/>
</svg>
