<svg width="24" height="42" viewBox="0 0 24 42" fill="none" xmlns="http://www.w3.org/2000/svg">
<path d="M22.9899 40.9904C21.8183 42.162 19.9188 42.162 18.7473 40.9904L1.12087 23.364C-0.0507022 22.1924 -0.0507018 20.2929 1.12087 19.1214C2.29244 17.9498 4.19194 17.9498 5.36351 19.1214L22.9899 36.7478C24.1615 37.9193 24.1615 39.8188 22.9899 40.9904Z" fill="white"/>
<path d="M22.9899 1.12136C21.8183 -0.0502173 19.9188 -0.0502175 18.7473 1.12136L1.12087 18.7478C-0.0507059 19.9193 -0.0507056 21.8188 1.12087 22.9904C2.29244 24.162 4.19193 24.162 5.36351 22.9904L22.9899 5.364C24.1615 4.19242 24.1615 2.29293 22.9899 1.12136Z" fill="white"/>
</svg>
