<svg width="24" height="42" viewBox="0 0 24 42" fill="none" xmlns="http://www.w3.org/2000/svg">
<path d="M1.12087 1.12136C2.29244 -0.0502176 4.19194 -0.0502174 5.36351 1.12136L22.9899 18.7478C24.1615 19.9193 24.1615 21.8188 22.9899 22.9904C21.8183 24.162 19.9188 24.162 18.7473 22.9904L1.12087 5.364C-0.0507049 4.19242 -0.0507048 2.29293 1.12087 1.12136Z" fill="white"/>
<path d="M1.12087 40.9904C2.29244 42.162 4.19193 42.162 5.36351 40.9904L22.9899 23.364C24.1615 22.1924 24.1615 20.2929 22.9899 19.1214C21.8183 17.9498 19.9188 17.9498 18.7473 19.1214L1.12087 36.7478C-0.0507056 37.9193 -0.0507059 39.8188 1.12087 40.9904Z" fill="white"/>
</svg>
