<svg width="49" height="41" viewBox="0 0 49 41" fill="none" xmlns="http://www.w3.org/2000/svg">
<path d="M48.4997 22.6038V23.5014C48.4997 23.5014 48.4424 23.5473 48.432 23.5728C47.9372 24.9958 47.2602 25.5211 45.7656 25.6027C45.4583 25.618 45.401 25.7404 45.4062 25.9954C45.4167 27.1276 45.4062 28.2598 45.4062 29.3972C45.4062 32.3655 45.4167 35.3286 45.4062 38.2969C45.401 40.1279 43.8127 41.3621 42.0941 40.898C40.9328 40.5818 40.2037 39.6026 40.2037 38.302C40.1985 34.2678 40.1933 30.2336 40.2141 26.2045C40.2141 25.7149 40.0683 25.6027 39.584 25.6027C36.4853 25.6231 33.3867 25.6231 30.2881 25.6027C29.8194 25.6027 29.6944 25.72 29.6944 26.1841C29.7152 30.1673 29.7048 34.1505 29.7048 38.1337C29.7048 39.9902 28.6685 41 26.7676 41C20.0288 41 13.2847 41 6.54587 41C4.619 41 3.57223 39.98 3.57223 38.1082C3.57223 34.125 3.57223 30.1418 3.57744 26.1586C3.57744 25.7761 3.52536 25.6078 3.06708 25.6027C1.39539 25.5721 0.234054 24.1542 0.556936 22.5477C1.41622 18.284 2.28071 14.0254 3.15561 9.76675C3.41079 8.52742 4.43672 7.7063 5.74387 7.7063C18.2373 7.7063 30.736 7.7063 43.2294 7.7063C44.5678 7.7063 45.5729 8.52232 45.8385 9.80245C46.4582 12.8217 47.0623 15.841 47.6925 18.8603C47.9528 20.1098 48.1351 21.3798 48.5049 22.6089L48.4997 22.6038ZM16.6229 25.6129C14.17 25.6129 11.7224 25.618 9.26953 25.6027C8.89457 25.6027 8.76959 25.6945 8.76959 26.077C8.78521 29.1932 8.78521 32.3094 8.76959 35.4255C8.76959 35.7979 8.87895 35.905 9.25912 35.905C14.1753 35.8948 19.0966 35.8948 24.0127 35.905C24.3929 35.905 24.5023 35.8081 24.497 35.4306C24.4814 32.3145 24.4762 29.1983 24.497 26.0821C24.497 25.6486 24.3304 25.6027 23.9659 25.6027C21.513 25.6129 19.0653 25.6078 16.6125 25.6078L16.6229 25.6129Z" fill="#66BB46"/>
<path d="M43.2872 -2.6816e-05C43.4069 0.142777 43.5944 0.127477 43.7507 0.188678C44.8651 0.62729 45.563 1.78502 45.3755 2.90705C45.1672 4.16679 44.1725 5.05421 42.9122 5.10521C42.7612 5.11031 42.6049 5.11031 42.4539 5.11031C30.476 5.11031 18.4982 5.11031 6.52552 5.11031C5.84331 5.11031 5.20275 5.02871 4.64552 4.6105C3.87477 4.02908 3.4946 3.25386 3.59355 2.30524C3.70291 1.31581 4.25494 0.61199 5.18192 0.203979C5.34857 0.132577 5.52042 0.066275 5.68707 -0.00512695C18.217 -0.00512695 30.7521 -0.00512695 43.282 -0.00512695L43.2872 -2.6816e-05Z" fill="#66BB46"/>
</svg>
