<svg width="43" height="44" viewBox="0 0 43 44" fill="none" xmlns="http://www.w3.org/2000/svg">
<path d="M0 25.5967C0.106789 25.163 0.160573 24.7177 0.318028 24.294C0.745962 23.1411 1.52232 22.3014 2.62919 21.7635C2.82561 21.6678 2.92227 21.5559 2.94332 21.3383C3.29876 17.7019 4.86006 14.6042 7.32165 11.9379C10.0662 8.96521 13.4538 7.05982 17.4097 6.1322C17.5554 6.09825 17.7191 6.1322 17.8758 6.01567C17.5211 5.67534 17.0831 5.5318 16.6411 5.40987C16.1399 5.27173 15.6223 5.2316 15.1024 5.22157C14.139 5.2015 13.5933 4.63042 13.6183 3.68197C13.6393 2.89249 14.2746 2.37158 15.1819 2.38238C16.9303 2.40399 18.5384 2.81687 19.8752 4.0061C20.0778 4.18668 20.2945 4.35106 20.5042 4.52161C20.7583 3.90037 21.0935 3.2282 21.5565 2.62471C22.5776 1.29579 23.9324 0.468501 25.5436 0.0425076C26.2654 -0.148109 26.9918 0.314927 27.1898 1.03881C27.4065 1.8306 27.0105 2.5483 26.2186 2.78754C25.1429 3.11244 24.2527 3.69432 23.6065 4.6173C23.421 4.88201 23.3018 5.17912 23.1841 5.47855C23.089 5.72087 23.1498 5.77026 23.3953 5.79727C25.4157 6.02493 27.3668 6.5227 29.1962 7.40941C34.6572 10.0557 38.3099 14.1913 39.7714 20.1066C39.8696 20.5033 39.9242 20.9123 39.9741 21.319C40.0052 21.5698 40.1097 21.7111 40.3435 21.8376C42.5144 23.0137 43.5113 25.4339 42.7435 27.7105C42.2759 29.0972 41.3428 30.0881 39.9569 30.6299C39.7238 30.721 39.5773 30.839 39.4986 31.0891C38.3075 34.8559 35.9028 37.6835 32.5784 39.7857C30.3716 41.1817 27.9592 42.0816 25.4048 42.6187C25.2302 42.6557 25.0961 42.7329 24.9589 42.8309C22.7452 44.4044 20.1542 44.3882 17.9577 42.7792C17.7667 42.6395 17.5554 42.6102 17.345 42.5647C14.1468 41.8724 11.2229 40.5967 8.66704 38.5494C6.19608 36.5699 4.42589 34.1088 3.4796 31.0883C3.42192 30.9031 3.35644 30.7588 3.13741 30.6731C1.40774 29.9971 0.369473 28.7523 0.0561225 26.9279C0.0498867 26.8924 0.0202665 26.8616 0.00155896 26.8284C0.00155896 26.417 0.00155896 26.0057 0.00155896 25.5952L0 25.5967ZM20.8597 35.4702C23.5824 35.4794 25.8998 34.7895 27.3239 33.7292C27.9825 33.2391 28.1322 32.3902 27.6731 31.752C27.2163 31.1169 26.3955 30.9749 25.7049 31.3939C22.8996 33.0948 20.0903 33.0809 17.2826 31.3985C16.9623 31.2064 16.6247 31.0968 16.2467 31.1771C15.6161 31.3106 15.2006 31.6733 15.0736 32.3099C14.952 32.9173 15.1866 33.405 15.6855 33.743C17.4253 34.9238 19.3701 35.454 20.8597 35.4694V35.4702ZM15.0736 22.7236C13.8623 22.7182 12.9074 23.6419 12.9043 24.8227C12.9012 26.0034 13.8514 26.9596 15.0369 26.9704C16.203 26.9812 17.2016 25.9949 17.1945 24.8389C17.1867 23.6728 16.2397 22.729 15.0736 22.7228V22.7236ZM27.974 22.7243C26.7892 22.695 25.814 23.6257 25.7867 24.8118C25.7602 25.9617 26.7416 26.9596 27.9163 26.9781C29.0629 26.9958 30.0458 26.0458 30.0762 24.8898C30.1074 23.706 29.1837 22.7552 27.974 22.7251V22.7243Z" fill="#66BB46"/>
</svg>
