<svg width="25" height="25" viewBox="0 0 25 25" fill="none" xmlns="http://www.w3.org/2000/svg">
<path d="M0 19.3887C0 14.8038 0 10.2076 0 5.62272C0.0570516 5.5771 0.0456413 5.52007 0.0570516 5.46305C0.0912825 5.08668 0.171155 4.72172 0.285258 4.36816C1.15244 1.73358 3.51438 0.0114051 6.28708 0C7.40529 0 8.51209 0 9.63031 0C12.6426 0 15.655 0 18.6673 0C19.5573 0 20.4245 0.136861 21.2232 0.524635C23.6764 1.69936 24.9772 3.64964 24.9886 6.37546C25.0114 10.4471 24.9886 14.5301 25 18.6017C25 19.6624 24.7946 20.6661 24.2926 21.6013C23.3455 23.3691 21.8736 24.4526 19.9224 24.886C19.7398 24.9202 19.5573 24.9202 19.3861 25C14.7992 25 10.2008 25 5.61388 25C5.57964 24.9886 5.54541 24.9544 5.51118 24.9544C4.76951 24.8631 4.06207 24.6578 3.41168 24.3043C1.63168 23.3577 0.536285 21.8864 0.114103 19.9247C0.0684619 19.7422 0.0684619 19.5598 0 19.3887ZM12.4943 7.29927C9.60749 7.32208 7.29119 9.63732 7.3026 12.5C7.31401 15.3741 9.63031 17.6893 12.5057 17.6893C15.3811 17.6893 17.743 15.3285 17.7088 12.4772C17.6746 9.5917 15.3469 7.27646 12.4943 7.29927ZM20.8238 5.72537C20.8238 4.86998 20.1392 4.18568 19.2834 4.17427C18.4162 4.17427 17.7202 4.86998 17.7202 5.73677C17.7202 6.59215 18.4162 7.27646 19.2834 7.27646C20.1392 7.27646 20.8238 6.59215 20.8238 5.72537Z" fill="#009BDD"/>
</svg>
