<svg width="45" height="38" viewBox="0 0 45 38" fill="none" xmlns="http://www.w3.org/2000/svg">
<path d="M44.7044 0C44.7333 0 44.7631 0 44.792 0V36.9891C44.5256 36.7878 44.339 36.6507 44.1577 36.5083C41.8246 34.6767 39.3855 33.0129 36.6879 31.7587C31.1202 29.1703 25.2809 28.1762 19.1718 28.7475C16.051 29.0393 13.0381 29.7697 10.1145 30.9009C6.391 32.3414 3.11784 34.522 0.0225255 37.0032C0.0225255 24.8003 0.0225255 12.5975 0.0277822 0.395511C0.0277822 0.266311 -0.072971 0.0975595 0.109261 0C0.668222 0.596783 1.35948 1.02833 2.00868 1.50997C10.493 7.80915 19.9112 9.77352 30.1985 7.50417C35.6296 6.30621 40.3352 3.622 44.6194 0.13799C44.6588 0.106349 44.6763 0.0465824 44.7044 0ZM42.0383 22.4694C42.0699 22.4431 42.1006 22.4158 42.1321 22.3895V5.31304C28.9571 13.0167 15.8154 13.0132 2.68416 5.31304V31.7666C3.48931 31.2981 4.25153 30.8428 5.02602 30.4104C5.39924 30.2021 5.72691 29.9516 6.02829 29.6484C9.70184 25.9552 13.3841 22.2708 17.0542 18.5741C17.3039 18.3227 17.4327 18.2937 17.6955 18.5627C19.1131 20.0129 20.5595 21.435 21.9788 22.8843C22.2241 23.1348 22.345 23.1119 22.579 22.8764C25.7855 19.6455 29.0061 16.4269 32.2118 13.1943C32.4721 12.9315 32.6008 12.8981 32.8821 13.1828C35.8162 16.15 38.7687 19.0997 41.7124 22.0572C41.8351 22.1803 41.9306 22.3306 42.0392 22.4677L42.0383 22.4694Z" fill="white"/>
<path d="M9.19725 12.3662C11.3332 12.3592 13.1179 14.1381 13.1354 16.2914C13.1529 18.4298 11.384 20.2237 9.2323 20.2509C7.08845 20.2782 5.26788 18.4641 5.27226 16.3037C5.27664 14.1557 7.05428 12.3732 9.19725 12.3662Z" fill="white"/>
</svg>
