<svg width="74" height="70" viewBox="0 0 74 70" fill="none" xmlns="http://www.w3.org/2000/svg">
<g clip-path="url(#clip0_160_325)">
<path d="M14.318 55.1993C13.1078 55.1918 12.1118 56.1632 12.0968 57.3644C12.0819 58.5431 13.0904 59.5744 14.2732 59.5919C15.4609 59.6094 16.4694 58.608 16.4769 57.4093C16.4844 56.1882 15.5232 55.2068 14.3155 55.1993H14.318Z" fill="#66BB46"/>
<path d="M36.6436 25.611C36.1456 25.154 35.665 24.677 35.2118 24.1751C34.9354 23.8654 34.7636 23.8504 34.4623 24.1626C33.1799 25.4836 31.8577 26.7697 30.5728 28.0907C30.269 28.4029 30.0997 28.4578 29.7635 28.1107C28.4861 26.7822 27.1614 25.5011 25.8765 24.1801C25.5926 23.8904 25.4183 23.8305 25.1245 24.1601C24.6738 24.6645 24.1907 25.139 23.6902 25.5935C23.3914 25.8657 23.4064 26.033 23.6902 26.3127C25.0398 27.6387 26.3621 28.9947 27.7142 30.3233C27.9756 30.5805 27.9532 30.7103 27.7067 30.9526C26.3571 32.2811 25.0373 33.6371 23.6827 34.9606C23.3864 35.2503 23.4138 35.4176 23.6952 35.6798C24.2032 36.1493 24.6937 36.6438 25.1619 37.1532C25.4059 37.4179 25.5578 37.3979 25.8043 37.1482C27.144 35.7872 28.506 34.4487 29.8457 33.0852C30.0872 32.838 30.2192 32.818 30.4732 33.0777C31.7929 34.4337 33.1351 35.7697 34.4722 37.1108C34.5793 37.2181 34.6914 37.3155 34.791 37.4054C34.9503 37.3904 35.0151 37.2806 35.0948 37.2007C35.6102 36.6887 36.1082 36.1568 36.6411 35.6649C36.92 35.4076 36.9175 35.2553 36.6436 34.9881C35.3039 33.6746 33.9966 32.3286 32.6545 31.0175C32.3482 30.7178 32.3631 30.5555 32.662 30.2633C34.0016 28.9498 35.3089 27.6013 36.6461 26.2877C36.9225 26.018 36.92 25.8657 36.6411 25.6085L36.6436 25.611Z" fill="#66BB46"/>
<path d="M57.5355 16.2194C58.7357 16.2169 59.7342 15.2155 59.7267 14.0218C59.7193 12.8356 58.6983 11.8217 57.5205 11.8242C56.3253 11.8292 55.3442 12.8256 55.3467 14.0368C55.3467 15.2504 56.3228 16.2219 57.5379 16.2169L57.5355 16.2194Z" fill="#66BB46"/>
<path d="M16.4773 14.0368C16.4773 12.8281 15.4962 11.8292 14.301 11.8242C13.1207 11.8192 12.0997 12.8356 12.0947 14.0218C12.0898 15.218 13.0833 16.2144 14.286 16.2194C15.4987 16.2219 16.4748 15.2504 16.4773 14.0368Z" fill="#66BB46"/>
<path d="M39.1338 57.3714C39.1288 58.5826 40.1049 59.5815 41.3027 59.5914C42.4805 59.5989 43.5039 58.5851 43.5163 57.3989C43.5288 56.2052 42.5328 55.2013 41.3301 55.1963C40.1124 55.1913 39.1388 56.1577 39.1338 57.3714Z" fill="#66BB46"/>
<path d="M57.5062 38.9395C56.2985 38.947 55.3373 39.9284 55.3448 41.1496C55.3522 42.3507 56.3607 43.3521 57.5485 43.3321C58.7338 43.3147 59.7398 42.2833 59.7248 41.1046C59.7099 39.9034 58.7138 38.932 57.5037 38.9395H57.5062Z" fill="#66BB46"/>
<path d="M66.7816 8.28619C63.8557 5.90632 61.4379 5.58418 52.262 3.79117C28.0833 -0.993537 19.3407 -3.79793 6.0163 11.5201C-0.410575 20.2255 -0.159077 29.9072 0.10238 39.9237C-0.550019 55.4015 3.85741 65.5278 17.8491 68.3247C29.3184 70.6172 37.2991 72.1879 51.7241 61.6196C60.1729 56.9049 62.3368 56.8699 65.3473 53.5835C72.6382 41.7991 79.8022 19.4064 66.7816 8.28619ZM61.7989 41.5868C61.4752 43.7644 59.909 45.2677 57.7924 45.4301C55.9647 45.5699 54.1868 44.4237 53.5244 42.6307C53.3949 42.2786 53.2306 42.1787 52.8745 42.1812C50.8476 42.1961 48.8232 42.1812 46.7962 42.1912C44.2638 42.2011 42.3888 44.0841 42.3813 46.6262C42.3739 48.6765 42.3813 50.7242 42.3764 52.7744C42.3764 53.0566 42.4237 53.2189 42.7349 53.3338C44.6 54.0231 45.7604 55.7911 45.611 57.6565C45.4491 59.6943 44.0821 61.2026 42.0203 61.6246C41.9406 61.6396 41.8684 61.6896 41.7937 61.7245H40.8823C40.8226 61.6971 40.7628 61.6521 40.7005 61.6396C38.9849 61.3424 37.837 60.366 37.2543 58.7278C37.1522 58.4432 36.9704 58.4482 36.7438 58.4482C30.7876 58.4482 24.8338 58.4506 18.8775 58.4432C18.5787 58.4432 18.4443 58.5306 18.3372 58.8227C17.8093 60.2537 16.7933 61.1676 15.3217 61.5672C15.1275 61.6196 14.9108 61.5822 14.7415 61.7195H13.8302C13.7405 61.6296 13.6185 61.6296 13.504 61.6047C11.731 61.2151 10.618 60.1263 10.1249 58.3857C10.0751 58.2109 10.115 58.0111 9.9805 57.8588V56.8424C10.0129 56.785 10.0652 56.7326 10.0776 56.6726C10.3889 55.017 11.3476 53.9007 12.9138 53.3263C13.24 53.2065 13.2475 53.0167 13.2475 52.752C13.2475 41.3895 13.2425 30.0246 13.2549 18.6622C13.2549 18.3101 13.1379 18.1727 12.8192 18.0529C11.4098 17.521 10.5258 16.4971 10.1299 15.0412C10.0876 14.8839 10.1399 14.6941 9.98299 14.5717V13.5554C10.1299 13.388 10.0926 13.1683 10.1424 12.976C10.6229 11.138 12.1967 9.83697 14.0916 9.7246C15.9119 9.61721 17.63 10.7235 18.2924 12.4741C18.4343 12.8486 18.5986 12.9785 19.0095 12.9785C30.2895 12.966 41.5696 12.966 52.8496 12.9785C53.2231 12.9785 53.4024 12.8861 53.5418 12.514C54.244 10.6311 56.2037 9.46239 58.0688 9.76705C60.2327 10.1192 61.7217 11.7324 61.8338 13.845C61.9309 15.678 60.7929 17.4136 59.0225 18.0654C58.6913 18.1877 58.5917 18.3326 58.5917 18.6772C58.6017 24.6206 58.6017 30.564 58.5917 36.5099C58.5917 36.8221 58.6664 36.9744 58.9876 37.0918C60.8776 37.7835 62.0853 39.7339 61.8089 41.5918L61.7989 41.5868Z" fill="#66BB46"/>
<path d="M56.4926 36.4849C56.4851 30.5415 56.4851 24.5981 56.4926 18.6522C56.4926 18.3325 56.3979 18.1852 56.0842 18.0703C54.879 17.6333 54.005 16.8192 53.5543 15.608C53.3999 15.191 53.2057 15.0561 52.7599 15.0586C47.1548 15.0761 41.5471 15.0711 35.942 15.0711C30.302 15.0711 24.6619 15.0761 19.0219 15.0636C18.6285 15.0636 18.4318 15.161 18.2898 15.5531C17.8541 16.7667 17 17.6108 15.7948 18.0478C15.4163 18.1852 15.3267 18.37 15.3292 18.7445C15.3416 22.0983 15.3366 25.4496 15.3366 28.8034C15.3366 36.7446 15.3366 44.6883 15.3292 52.6295C15.3292 53.0091 15.3939 53.2264 15.8023 53.3712C17.0498 53.8182 17.8914 54.7122 18.3372 55.9608C18.4417 56.253 18.5787 56.3479 18.88 56.3479C24.8238 56.3404 30.7676 56.3404 36.7114 56.3479C37.0351 56.3479 37.1721 56.2405 37.2841 55.9309C37.7348 54.6848 38.5889 53.8057 39.8389 53.3587C40.195 53.2314 40.2872 53.0516 40.2847 52.697C40.2697 50.6992 40.2747 48.7014 40.2797 46.7011C40.2896 42.8728 43.076 40.0884 46.9058 40.0809C48.8978 40.0759 50.8899 40.0759 52.8844 40.0834C53.1758 40.0834 53.37 40.0535 53.4895 39.7113C53.9352 38.4203 54.8242 37.5312 56.1066 37.0743C56.4303 36.9594 56.4975 36.7896 56.4975 36.4799L56.4926 36.4849ZM39.6522 26.2587C38.3424 27.5548 37.0426 28.8608 35.7453 30.1694C35.2124 30.7063 35.2273 30.5839 35.7278 31.0884C37.0152 32.3844 38.3001 33.6805 39.5999 34.9616C39.8688 35.2263 39.9161 35.3736 39.6123 35.6708C38.1133 37.1367 36.6367 38.6225 35.1701 40.1234C34.9086 40.3906 34.7741 40.4106 34.5027 40.1309C33.1929 38.7874 31.8508 37.4763 30.541 36.1303C30.2547 35.8356 30.0978 35.8057 29.794 36.1178C28.4867 37.4638 27.152 38.7849 25.8248 40.1109C25.7227 40.2133 25.6032 40.3032 25.4837 40.4056C25.3691 40.3032 25.2795 40.2308 25.1973 40.1484C23.6809 38.63 22.1694 37.1042 20.643 35.5934C20.4164 35.3686 20.4313 35.2488 20.6479 35.034C22.005 33.6905 23.3422 32.3245 24.7068 30.986C25.0031 30.6963 24.9682 30.539 24.6943 30.2693C23.3696 28.9657 22.0723 27.6322 20.7426 26.3311C20.4537 26.049 20.4064 25.8966 20.7251 25.587C22.2117 24.1336 23.6759 22.6577 25.1326 21.1719C25.4065 20.8922 25.5584 20.8722 25.8447 21.1644C27.1545 22.5079 28.4967 23.8214 29.8064 25.1649C30.0878 25.4521 30.2422 25.4446 30.5186 25.1624C31.8408 23.8064 33.1929 22.4804 34.5177 21.1269C34.7716 20.8672 34.9111 20.8847 35.1551 21.1344C36.6492 22.6527 38.1507 24.1635 39.6671 25.6594C39.9161 25.9066 39.8788 26.0365 39.6522 26.2587Z" fill="#66BB46"/>
</g>
<defs>
<clipPath id="clip0_160_325">
<rect width="74" height="70" fill="white"/>
</clipPath>
</defs>
</svg>
