<svg width="34" height="24" viewBox="0 0 34 24" fill="none" xmlns="http://www.w3.org/2000/svg">
<path d="M0 2C0 0.895431 0.895431 0 2 0H32C33.1046 0 34 0.895431 34 2C34 3.10457 33.1046 4 32 4H2C0.89543 4 0 3.10457 0 2Z" fill="white"/>
<path d="M0 12C0 10.8954 0.895431 10 2 10H32C33.1046 10 34 10.8954 34 12C34 13.1046 33.1046 14 32 14H2C0.89543 14 0 13.1046 0 12Z" fill="white"/>
<path d="M0 22C0 20.8954 0.895431 20 2 20H32C33.1046 20 34 20.8954 34 22C34 23.1046 33.1046 24 32 24H2C0.89543 24 0 23.1046 0 22Z" fill="white"/>
</svg>
