<svg width="24" height="22" viewBox="0 0 24 22" fill="none" xmlns="http://www.w3.org/2000/svg">
<path d="M0 4.34963C0.559398 3.64574 1.10677 2.93086 1.7203 2.26546C2.4 1.53958 3.0797 0.8082 3.95789 0.263788C4.51128 -0.0826564 5.04662 -0.0771572 5.62406 0.208797C6.54436 0.670722 7.32632 1.29212 8.0421 1.99051C8.70977 2.6449 9.31729 3.34329 9.69624 4.17916C9.84662 4.5036 9.95489 4.83905 9.9188 5.19649C9.88872 5.47145 9.75639 5.69691 9.53985 5.88938C9.14887 6.23582 8.71579 6.52178 8.26466 6.79673C7.92782 7.0002 7.57293 7.18717 7.24812 7.40714C6.45413 7.93505 6.24962 8.52346 6.50827 9.39232C6.68872 9.99722 7.03158 10.5251 7.45865 10.9981C8.81203 12.5048 10.3098 13.8796 11.9579 15.1114C12.5474 15.5513 13.197 15.9088 13.9669 16.0297C14.7308 16.1507 15.3684 15.9748 15.8376 15.3753C16.2165 14.8859 16.5293 14.358 16.9263 13.8796C17.1007 13.6706 17.2872 13.4672 17.4797 13.2692C17.8647 12.8678 18.3398 12.7853 18.8812 12.9062C19.6271 13.0712 20.2647 13.4287 20.8601 13.8466C21.8827 14.556 22.7729 15.3808 23.4827 16.3652C23.6331 16.5742 23.7534 16.7996 23.8737 17.0251C24.1023 17.4595 24.012 17.85 23.7474 18.2404C23.3744 18.7903 22.8812 19.2467 22.3579 19.6812C21.4316 20.451 20.4451 21.1494 19.4165 21.7983C19.3504 21.8368 19.2962 21.8863 19.2301 21.9303H18.809C18.7729 21.9193 18.7368 21.9028 18.7008 21.9028C17.8105 21.8258 16.9504 21.6168 16.1083 21.3584C13.6601 20.594 11.3985 19.5052 9.25714 18.1854C7.64511 17.1956 6.2015 16.0407 5.01654 14.622C3.66316 13.0052 2.53835 11.262 1.6 9.41981C1.04662 8.32549 0.571429 7.20367 0.258647 6.02686C0.144361 5.60343 0.0902256 5.1745 0.00601504 4.74556V4.36063L0 4.34963Z" fill="#66BB46"/>
</svg>
