<svg width="280" height="125" viewBox="0 0 280 125" fill="none" xmlns="http://www.w3.org/2000/svg">
<g style="mix-blend-mode:darken">
<path d="M128.793 4.2595C128.869 4.27222 128.945 4.29765 129.022 4.31036C128.983 4.28493 128.945 4.2595 128.92 4.23408L128.806 4.2595H128.793Z" fill="#66BB46"/>
<path d="M112.16 48.253L116.95 48.075V44.8073L112.16 45.4176V48.253Z" fill="#66BB46"/>
<path d="M120.851 45.2777L127.255 45.0361V41.2344L120.851 41.9718V45.2777Z" fill="#66BB46"/>
<path d="M114.727 0.533936C115.133 0.57208 115.552 0.610225 115.972 0.673799C115.552 0.62294 115.133 0.57208 114.727 0.533936Z" fill="#66BB46"/>
<path d="M115.032 1.1825C114.778 1.13164 114.536 1.0935 114.282 1.04264C114.536 1.08078 114.79 1.13164 115.032 1.1825Z" fill="#66BB46"/>
<path d="M106.722 3.67462C107.243 3.70005 107.726 3.71277 108.158 3.72548C107.713 3.72548 107.23 3.70005 106.722 3.67462Z" fill="#66BB46"/>
<path d="M116.493 1.48776C116.277 1.4369 116.061 1.38605 115.832 1.3479C116.048 1.39876 116.277 1.44962 116.493 1.48776Z" fill="#66BB46"/>
<path d="M104.777 3.54736C105.298 3.58551 105.781 3.62365 106.251 3.63637C105.781 3.61094 105.286 3.58551 104.777 3.54736Z" fill="#66BB46"/>
<path d="M117.688 1.76747C117.573 1.74204 117.472 1.7039 117.357 1.67847C117.472 1.7039 117.573 1.72933 117.688 1.76747Z" fill="#66BB46"/>
<path d="M119.987 2.40313C119.987 2.40313 119.936 2.39042 119.911 2.3777C119.936 2.3777 119.962 2.39042 119.987 2.40313Z" fill="#66BB46"/>
<path d="M122.402 3.16603C122.325 3.1406 122.262 3.11517 122.186 3.08974C122.262 3.11517 122.338 3.1406 122.402 3.16603Z" fill="#66BB46"/>
<path d="M91.6641 1.14429C92.3629 1.36044 93.0618 1.55116 93.7606 1.72917C93.0745 1.55116 92.3756 1.34773 91.6641 1.14429Z" fill="#66BB46"/>
<path d="M88.2715 1.95689e-05C89.1736 0.343321 90.0758 0.648479 90.9653 0.928206C90.0758 0.648479 89.1736 0.343321 88.2715 -0.0126953V1.95689e-05Z" fill="#66BB46"/>
<path d="M97.2559 2.54297C97.9801 2.68283 98.679 2.80998 99.3651 2.9117C98.679 2.79727 97.9801 2.68283 97.2559 2.54297Z" fill="#66BB46"/>
<path d="M26.048 27.2353C25.2348 27.0827 24.4216 26.892 23.6338 26.6631C23.6973 26.7139 23.7736 26.7394 23.8498 26.7902C23.7863 26.7521 23.71 26.7139 23.6592 26.6758C24.447 26.9174 25.2475 27.0954 26.0607 27.248L26.048 27.2353Z" fill="#66BB46"/>
<path d="M43.1131 21.005C44.46 20.9669 45.7687 20.9669 47.0775 20.9669C45.7814 20.9669 44.46 20.9669 43.1131 21.005Z" fill="#66BB46"/>
<path d="M32.8841 29.6638C33.0111 29.6765 33.1382 29.702 33.278 29.7147C32.2996 30.0198 31.3212 30.2996 30.3428 30.592C31.6515 30.325 32.846 30.0326 33.9006 29.7528C33.5575 29.7274 33.2271 29.6892 32.8968 29.6638H32.8841Z" fill="#66BB46"/>
<path d="M179.225 47.1595C178.666 46.3203 178.094 45.4812 177.459 44.7055C170.419 36.1611 162.706 28.0999 155.388 19.7462C153.85 17.9916 151.919 16.5675 149.682 15.6012C148.793 15.2197 148.475 14.8891 148.755 13.8974C149.441 11.4943 150.102 6.57361 149.797 3.70005C148.399 5.62 146.569 9.6379 145.197 11.5197C145.197 10.1974 145.591 8.02311 145.591 6.89149C145.222 7.26022 143.253 10.1211 142.084 9.40903C141.131 8.82415 140.152 8.26469 139.149 7.7561C134.638 5.0224 126.747 0.737483 122.605 1.53852C124.701 1.7801 126.645 2.70829 128.247 3.77634C126.76 3.26774 123.901 2.32684 120.75 1.57666C125.337 2.67014 129.301 4.15779 129.301 4.15779L126.429 4.70453C126.429 4.70453 125.019 4.09421 122.884 3.34403C121.499 3.20417 120.114 3.12788 118.717 3.08974C113.367 1.47495 106.01 1.95503e-05 99.0343 0.966351C103.024 1.4368 106.734 2.41585 109.949 3.50933C109.377 3.5729 108.806 3.64919 108.247 3.72548C110.178 3.76362 111.321 3.68734 111.321 3.68734L114.867 8.37913C114.867 8.37913 104.892 7.83239 95.413 3.86534C95.4765 3.89077 95.54 3.92892 95.6163 3.95435C93.9644 3.97978 92.2745 4.01792 90.5591 4.09421C82.2363 2.33956 72.9352 1.39866 64.8666 3.06431C71.4994 2.79729 77.3825 3.61105 82.0839 4.70453C78.9199 5.03511 75.7687 5.49285 72.7446 6.10316C77.5604 5.82344 82.2363 5.78529 86.582 5.91244C87.1156 6.07773 87.6239 6.24303 88.1067 6.40832C82.5032 6.86606 76.8869 7.76881 72.2109 9.39632C76.8742 8.13754 81.4104 8.22655 85.3113 8.82415C89.6315 8.23926 92.2617 7.69252 92.2617 7.69252L99.0851 10.8712C99.0851 10.8712 84.0534 12.5878 68.2846 12.0029C57.2554 12.9565 42.8081 13.5414 30.3685 11.8376C36.2008 13.7575 44.1677 14.6348 52.5159 14.9273C70.0889 13.5541 87.5985 15.4613 87.5985 15.4613L79.8983 18.4366C79.8983 18.4366 74.2948 17.4703 65.7942 16.7837C60.3685 17.8517 53.1258 18.4747 46.0356 16.6184C48.8691 18.0297 52.2618 18.7926 55.7687 19.1486C68.6404 18.6909 79.6569 20.0641 79.6569 20.0641L72.7065 23.3445C72.7065 23.3445 65.8958 21.9713 56.1118 21.3229C50.6226 22.2511 41.0673 23.5861 30.648 23.7006C36.8234 24.3872 43.5959 24.3363 49.5934 24.0184C47.5731 24.794 45.5527 25.5569 43.4943 26.3071C40.305 27.0573 36.0483 27.7948 31.6773 27.7693C40.4956 27.8075 48.8691 24.7686 48.8691 24.7686L53.0114 27.7693C53.0114 27.7693 47.4587 29.2442 40.8767 29.7274L43.1893 31.2023C43.1893 31.2023 30.1525 34.2921 18.3863 33.224C12.4905 33.4529 5.37484 34.1268 0 35.945C1.3723 35.8178 2.71919 35.7543 4.02795 35.7288C2.69377 35.8433 1.35959 35.9577 0 36.034C10.4574 35.2965 20.216 37.5216 29.6315 41.565C43.8374 47.6554 58.4371 52.8685 73.7103 56.2888C82.6557 58.2978 91.7408 59.0479 100.813 57.0517C103.761 56.4032 106.671 55.6149 109.53 54.7376L109.466 41.7303L109.022 41.1708L117.357 40.2299L122.478 33.2113L128.983 33.7707L134.447 40.001L133.926 40.4842L133.964 45.0488C135.947 44.6674 137.687 44.8454 139.174 46.5873C141.029 48.7489 143.698 50.0839 146.722 50.2492C152.49 50.5671 157.522 52.7414 162.579 54.9792C163.85 55.5386 164.841 56.3015 165.464 57.5221C166.455 59.4294 168.158 60.1796 170.47 59.7854C172.198 59.493 173.939 59.2768 174.473 57.3441C174.587 56.9245 175.07 56.8483 175.388 56.6067C177.611 54.9029 178.488 52.4235 179.708 50.1729C180.216 49.232 179.822 48.1131 179.212 47.1977L179.225 47.1595ZM128.793 4.2595L128.907 4.23408C128.907 4.23408 128.983 4.28493 129.009 4.31036C128.933 4.29765 128.856 4.27222 128.78 4.2595H128.793Z" fill="#66BB46"/>
<path d="M19.2126 31.8763C15.7437 31.9144 12.0842 31.6093 8.46289 30.7319C8.61537 30.7955 8.76785 30.8464 8.92032 30.9099C12.4019 31.6601 15.8962 31.9271 19.2126 31.8763Z" fill="#66BB46"/>
<path d="M110.661 0.610303C110.966 0.559444 111.296 0.521299 111.627 0.483154C111.296 0.508584 110.966 0.546729 110.661 0.610303Z" fill="#66BB46"/>
<path d="M112.071 0.47047C112.351 0.457755 112.63 0.44504 112.922 0.44504C112.63 0.44504 112.351 0.44504 112.071 0.47047Z" fill="#66BB46"/>
<path d="M113.367 0.457755C113.672 0.457755 113.99 0.483185 114.32 0.508615C114.003 0.483185 113.685 0.47047 113.367 0.457755Z" fill="#66BB46"/>
<path d="M119.225 1.2334C119.733 1.33512 120.241 1.44955 120.737 1.5767C120.241 1.46227 119.733 1.34783 119.225 1.2334Z" fill="#66BB46"/>
<path d="M44.79 8.39185C44.9933 8.45542 45.2094 8.51899 45.4127 8.58257C51.893 9.76505 58.5003 10.2101 64.6249 10.2228C58.2843 10.1846 51.4609 9.70148 44.79 8.39185Z" fill="#66BB46"/>
<path d="M41.8174 16.3006C43.9775 16.1989 46.0995 16.1353 48.1833 16.1099C46.1503 16.1226 44.0791 16.1734 41.9699 16.2752C41.919 16.2752 41.8682 16.2879 41.8301 16.3006H41.8174Z" fill="#66BB46"/>
<path d="M38.3223 21.221C39.936 21.1193 41.5243 21.043 43.0999 21.0049C41.5751 21.043 40.0376 21.0939 38.4747 21.1956C38.4239 21.1956 38.3731 21.2083 38.3223 21.221Z" fill="#66BB46"/>
<path d="M31.156 29.435C30.8638 29.3842 30.5715 29.346 30.2793 29.2825C30.5715 29.3333 30.8638 29.3842 31.156 29.435Z" fill="#66BB46"/>
<path d="M29.2246 27.6421C29.8853 27.6929 30.5461 27.7184 31.2068 27.7311C30.5461 27.7311 29.8853 27.6929 29.2246 27.6421Z" fill="#66BB46"/>
<path d="M45.4127 8.58257C45.0569 8.51899 44.7014 8.45542 44.3583 8.39184C51.0419 10.6932 59.7713 11.685 68.2846 12.0029C68.3227 12.0029 68.3736 12.0029 68.4117 12.0029C60.2414 11.685 51.9187 10.7314 45.413 8.59528L45.4127 8.58257Z" fill="#66BB46"/>
<path d="M85.3113 8.82415C80.5972 9.45989 73.8758 10.1466 66.3027 10.2101C73.9393 10.1593 80.7627 9.48539 85.5403 8.84965C85.4641 8.84965 85.3875 8.83686 85.3113 8.82415Z" fill="#66BB46"/>
<path d="M99.0851 10.8712L92.2617 7.69252C92.2617 7.69252 89.6315 8.23926 85.3113 8.82415C85.3875 8.82415 85.4641 8.83693 85.5403 8.84965C80.75 9.48539 73.9393 10.1593 66.3027 10.2101C65.9215 10.2101 65.54 10.2101 65.1588 10.2101C64.9809 10.2101 64.8158 10.2101 64.6379 10.2101C58.5133 10.1974 51.906 9.75233 45.4257 8.56985C51.9441 10.6932 60.2668 11.6596 68.4244 11.9774C68.3863 11.9774 68.3355 11.9774 68.2973 11.9774C84.0534 12.5623 99.0978 10.8458 99.0978 10.8458L99.0851 10.8712Z" fill="#66BB46"/>
<path d="M99.0851 10.8712L92.2617 7.69252C92.2617 7.69252 89.6315 8.23926 85.3113 8.82415C85.3875 8.82415 85.4641 8.83693 85.5403 8.84965C80.75 9.48539 73.9393 10.1593 66.3027 10.2101C65.9215 10.2101 65.54 10.2101 65.1588 10.2101C64.9809 10.2101 64.8158 10.2101 64.6379 10.2101C58.5133 10.1974 51.906 9.75233 45.4257 8.56985C51.9441 10.6932 60.2668 11.6596 68.4244 11.9774C68.3863 11.9774 68.3355 11.9774 68.2973 11.9774C84.0534 12.5623 99.0978 10.8458 99.0978 10.8458L99.0851 10.8712Z" fill="#66BB46"/>
<path d="M55.7815 19.1359C49.9111 19.3521 43.6595 19.937 37.8907 21.2212C38.094 21.2084 38.2841 21.2083 38.4747 21.1956C44.091 19.9623 50.1525 19.3775 55.8831 19.1486C55.845 19.1486 55.8196 19.1486 55.7815 19.1359Z" fill="#66BB46"/>
<path d="M47.0645 20.9668C50.2792 20.9922 53.316 21.1067 56.1242 21.2974C56.175 21.2974 56.2258 21.2847 56.2766 21.272C53.4304 21.0812 50.3173 20.9668 47.0645 20.9668Z" fill="#66BB46"/>
<path d="M79.67 20.0514C79.67 20.0514 68.6531 18.6782 55.7815 19.1359C55.8196 19.1359 55.845 19.1359 55.8831 19.1486C50.1652 19.3648 44.091 19.9623 38.4747 21.1956C40.0376 21.1066 41.5751 21.043 43.0999 21.0049C44.4468 20.9795 45.7684 20.9668 47.0645 20.9668C50.3173 20.9668 53.4304 21.0939 56.2766 21.272C56.2258 21.272 56.175 21.2847 56.1242 21.2974C65.9082 21.9586 72.7196 23.3191 72.7196 23.3191L79.67 20.0387V20.0514Z" fill="#66BB46"/>
<path d="M79.67 20.0514C79.67 20.0514 68.6531 18.6782 55.7815 19.1359C55.8196 19.1359 55.845 19.1359 55.8831 19.1486C50.1652 19.3648 44.091 19.9623 38.4747 21.1956C40.0376 21.1066 41.5751 21.043 43.0999 21.0049C44.4468 20.9795 45.7684 20.9668 47.0645 20.9668C50.3173 20.9668 53.4304 21.0939 56.2766 21.272C56.2258 21.272 56.175 21.2847 56.1242 21.2974C65.9082 21.9586 72.7196 23.3191 72.7196 23.3191L79.67 20.0387V20.0514Z" fill="#66BB46"/>
<path d="M27.8399 28.6721C27.3189 28.5068 26.8361 28.3033 26.3405 28.0999C26.8234 28.3033 27.3189 28.5068 27.8399 28.6721Z" fill="#66BB46"/>
<path d="M25.6031 27.8075C24.9805 27.515 24.3962 27.159 23.8498 26.7902C24.3962 27.1717 24.9805 27.515 25.6031 27.8075Z" fill="#66BB46"/>
<path d="M28.5518 27.5786C28.7805 27.604 28.9965 27.6168 29.2252 27.6295C28.9965 27.6168 28.7805 27.5913 28.5518 27.5786Z" fill="#66BB46"/>
<path d="M30.2793 29.2825C29.7329 29.1808 29.2122 29.0408 28.6912 28.9009C29.2122 29.0408 29.7329 29.168 30.2793 29.2825Z" fill="#66BB46"/>
<path d="M38.6528 28.2779L40.9019 29.7147C47.4838 29.2315 53.0366 27.7566 53.0366 27.7566L48.8942 24.7559C48.8942 24.7559 40.5207 27.782 31.7024 27.7566C31.5372 27.7566 31.3847 27.7566 31.2195 27.7566C30.5588 27.7566 29.8981 27.7184 29.2373 27.6676C29.0086 27.6549 28.7926 27.6294 28.5639 27.6167C27.9286 27.5531 27.2932 27.4641 26.6706 27.3624C26.4673 27.3243 26.264 27.2988 26.0607 27.2607C25.2475 27.1081 24.447 26.9301 23.6592 26.6885C23.7227 26.7267 23.799 26.7648 23.8498 26.803C24.3962 27.1844 24.9807 27.5277 25.6033 27.8201C25.832 27.9346 26.0988 28.0236 26.3402 28.1253C26.8231 28.3287 27.3186 28.5322 27.8396 28.6975C28.1192 28.7865 28.4114 28.8501 28.6909 28.9263C29.2119 29.0662 29.7329 29.1934 30.2793 29.3078C30.5715 29.3586 30.8638 29.4095 31.156 29.4604C31.7278 29.5494 32.2996 29.6257 32.8841 29.6892C33.2145 29.7274 33.5575 29.7528 33.8879 29.7782C36.8358 29.0026 38.6528 28.3033 38.6528 28.3033V28.2779Z" fill="#66BB46"/>
<path d="M38.6528 28.2779L40.9019 29.7147C47.4838 29.2315 53.0366 27.7566 53.0366 27.7566L48.8942 24.7559C48.8942 24.7559 40.5207 27.782 31.7024 27.7566C31.5372 27.7566 31.3847 27.7566 31.2195 27.7566C30.5588 27.7566 29.8981 27.7184 29.2373 27.6676C29.0086 27.6549 28.7926 27.6294 28.5639 27.6167C27.9286 27.5531 27.2932 27.4641 26.6706 27.3624C26.4673 27.3243 26.264 27.2988 26.0607 27.2607C25.2475 27.1081 24.447 26.9301 23.6592 26.6885C23.7227 26.7267 23.799 26.7648 23.8498 26.803C24.3962 27.1844 24.9807 27.5277 25.6033 27.8201C25.832 27.9346 26.0988 28.0236 26.3402 28.1253C26.8231 28.3287 27.3186 28.5322 27.8396 28.6975C28.1192 28.7865 28.4114 28.8501 28.6909 28.9263C29.2119 29.0662 29.7329 29.1934 30.2793 29.3078C30.5715 29.3586 30.8638 29.4095 31.156 29.4604C31.7278 29.5494 32.2996 29.6257 32.8841 29.6892C33.2145 29.7274 33.5575 29.7528 33.8879 29.7782C36.8358 29.0026 38.6528 28.3033 38.6528 28.3033V28.2779Z" fill="#66BB46"/>
<path d="M49.9114 16.1099C55.7691 16.1099 61.2198 16.4022 65.8069 16.7709C65.8577 16.7709 65.8958 16.7582 65.9466 16.7455C61.3088 16.3768 55.8072 16.0971 49.9114 16.1099Z" fill="#66BB46"/>
<path d="M52.5159 14.9146C48.7548 15.207 44.9809 15.652 41.385 16.3005C41.5756 16.3005 41.7666 16.3006 41.9699 16.2752C45.4768 15.6521 49.136 15.2197 52.8081 14.9273C52.7192 14.9273 52.6175 14.9273 52.5286 14.9273L52.5159 14.9146Z" fill="#66BB46"/>
<path d="M87.6112 15.4486C87.6112 15.4486 70.0889 13.5414 52.5286 14.9146C52.6175 14.9146 52.7192 14.9146 52.8081 14.9146C49.136 15.207 45.4765 15.6393 41.9695 16.2624C44.0788 16.1733 46.1499 16.1098 48.183 16.0971C48.2846 16.0971 48.3863 16.0971 48.4879 16.0971C48.9708 16.0971 49.4409 16.0971 49.9111 16.0971C55.8069 16.0971 61.3088 16.3641 65.9466 16.7328C65.9085 16.7328 65.8577 16.7455 65.8069 16.7582C74.3075 17.4448 79.911 18.4112 79.911 18.4112L87.6112 15.4359V15.4486Z" fill="#66BB46"/>
<path d="M87.6112 15.4486C87.6112 15.4486 70.0889 13.5414 52.5286 14.9146C52.6175 14.9146 52.7192 14.9146 52.8081 14.9146C49.136 15.207 45.4765 15.6393 41.9695 16.2624C44.0788 16.1733 46.1499 16.1098 48.183 16.0971C48.2846 16.0971 48.3863 16.0971 48.4879 16.0971C48.9708 16.0971 49.4409 16.0971 49.9111 16.0971C55.8069 16.0971 61.3088 16.3641 65.9466 16.7328C65.9085 16.7328 65.8577 16.7455 65.8069 16.7582C74.3075 17.4448 79.911 18.4112 79.911 18.4112L87.6112 15.4359V15.4486Z" fill="#66BB46"/>
<path d="M96.8996 2.47942C97.014 2.50485 97.1415 2.51754 97.2559 2.54297C97.1415 2.51754 97.0267 2.50485 96.8996 2.47942Z" fill="#66BB46"/>
<path d="M108.247 3.72548C108.247 3.72548 108.195 3.72559 108.17 3.72559C108.195 3.72559 108.221 3.72548 108.247 3.72548Z" fill="#66BB46"/>
<path d="M93.748 1.74194C93.9514 1.7928 94.155 1.85639 94.3583 1.89454C94.155 1.84368 93.9514 1.7928 93.748 1.74194Z" fill="#66BB46"/>
<path d="M90.9657 0.940921C91.1944 1.01721 91.4231 1.08078 91.6646 1.15707C91.4358 1.08078 91.2071 1.01721 90.9657 0.940921Z" fill="#66BB46"/>
<path d="M88.2588 0C89.3134 0.737463 90.4316 1.3987 91.5752 2.02173C90.4443 1.41141 89.3261 0.750198 88.2715 1.95689e-05L88.2588 0Z" fill="#66BB46"/>
<path d="M106.265 3.64917C106.417 3.64917 106.582 3.66189 106.735 3.6746C106.582 3.6746 106.43 3.66188 106.265 3.64917Z" fill="#66BB46"/>
<path d="M104.358 3.52204C104.511 3.52204 104.638 3.54736 104.777 3.54736C104.638 3.54736 104.498 3.53476 104.358 3.52204Z" fill="#66BB46"/>
<path d="M111.308 3.68726C111.308 3.68726 110.165 3.76355 108.233 3.7254C108.208 3.7254 108.183 3.72548 108.158 3.72548C107.713 3.72548 107.23 3.70005 106.722 3.67462C106.569 3.67462 106.416 3.66183 106.251 3.64911C105.781 3.62368 105.298 3.59825 104.777 3.56011C104.637 3.56011 104.498 3.54739 104.358 3.53468C103.697 3.48382 103.011 3.42024 102.274 3.33124C102.147 3.31853 102.02 3.2931 101.88 3.28038C101.27 3.20409 100.648 3.1278 99.9996 3.02608C99.7836 2.98794 99.5676 2.96251 99.3516 2.92436C98.6654 2.80993 97.9666 2.6955 97.2423 2.55563C97.1279 2.5302 97.0136 2.51749 96.8865 2.49206C96.0606 2.32676 95.2092 2.13604 94.3452 1.91989C94.1419 1.86903 93.9386 1.81817 93.7353 1.76731C93.0491 1.5893 92.3503 1.38586 91.6387 1.18243C91.41 1.10614 91.1813 1.04256 90.9399 0.966272C90.0504 0.686545 89.1483 0.381388 88.2461 0.0380859C89.3007 0.775549 90.4189 1.43672 91.5498 2.05975C91.7023 2.14876 91.8547 2.23776 92.0072 2.31405C93.1127 2.89893 94.2436 3.42024 95.3871 3.90341C104.866 7.87045 114.841 8.41719 114.841 8.41719L111.296 3.7254L111.308 3.68726Z" fill="#66BB46"/>
<path d="M111.308 3.68726C111.308 3.68726 110.165 3.76355 108.233 3.7254C108.208 3.7254 108.183 3.72548 108.158 3.72548C107.713 3.72548 107.23 3.70005 106.722 3.67462C106.569 3.67462 106.416 3.66183 106.251 3.64911C105.781 3.62368 105.298 3.59825 104.777 3.56011C104.637 3.56011 104.498 3.54739 104.358 3.53468C103.697 3.48382 103.011 3.42024 102.274 3.33124C102.147 3.31853 102.02 3.2931 101.88 3.28038C101.27 3.20409 100.648 3.1278 99.9996 3.02608C99.7836 2.98794 99.5676 2.96251 99.3516 2.92436C98.6654 2.80993 97.9666 2.6955 97.2423 2.55563C97.1279 2.5302 97.0136 2.51749 96.8865 2.49206C96.0606 2.32676 95.2092 2.13604 94.3452 1.91989C94.1419 1.86903 93.9386 1.81817 93.7353 1.76731C93.0491 1.5893 92.3503 1.38586 91.6387 1.18243C91.41 1.10614 91.1813 1.04256 90.9399 0.966272C90.0504 0.686545 89.1483 0.381388 88.2461 0.0380859C89.3007 0.775549 90.4189 1.43672 91.5498 2.05975C91.7023 2.14876 91.8547 2.23776 92.0072 2.31405C93.1127 2.89893 94.2436 3.42024 95.3871 3.90341C104.866 7.87045 114.841 8.41719 114.841 8.41719L111.296 3.7254L111.308 3.68726Z" fill="#66BB46"/>
<path d="M117.357 1.67847C117.078 1.61489 116.785 1.55124 116.493 1.47495C116.785 1.53852 117.065 1.60218 117.357 1.67847Z" fill="#66BB46"/>
<path d="M119.187 1.2207C119.187 1.2207 119.212 1.2207 119.225 1.2207C119.225 1.2207 119.199 1.2207 119.187 1.2207Z" fill="#66BB46"/>
<path d="M119.898 2.3777C119.187 2.16155 118.45 1.95819 117.688 1.76747C118.45 1.95819 119.199 2.16155 119.898 2.3777Z" fill="#66BB46"/>
<path d="M115.972 0.673799C115.972 0.673799 116.061 0.673809 116.111 0.686523C116.061 0.686523 116.023 0.686514 115.972 0.673799Z" fill="#66BB46"/>
<path d="M122.402 3.16603C122.579 3.2296 122.732 3.28046 122.897 3.34403C122.897 3.34403 122.897 3.34403 122.91 3.34403C122.745 3.29317 122.567 3.2296 122.402 3.16603Z" fill="#66BB46"/>
<path d="M114.32 0.508615C114.46 0.508615 114.587 0.521221 114.727 0.533936C114.587 0.533936 114.46 0.508615 114.32 0.508615Z" fill="#66BB46"/>
<path d="M111.626 0.495889C111.766 0.495889 111.918 0.483174 112.058 0.470459C111.918 0.470459 111.766 0.470459 111.626 0.495889Z" fill="#66BB46"/>
<path d="M114.282 1.04264C114.028 1.0045 113.773 0.953584 113.519 0.928155C113.773 0.966299 114.028 1.0045 114.282 1.04264Z" fill="#66BB46"/>
<path d="M120.75 1.57666C120.75 1.57666 120.75 1.57666 120.762 1.57666C120.762 1.57666 120.762 1.57666 120.75 1.57666Z" fill="#66BB46"/>
<path d="M110.661 0.610303C110.661 0.610303 110.533 0.610352 110.482 0.635781C110.533 0.635781 110.597 0.635781 110.648 0.635781C110.597 0.635781 110.546 0.635781 110.495 0.635781C110.546 0.635781 110.61 0.623018 110.661 0.610303Z" fill="#66BB46"/>
<path d="M129.313 4.15777C129.313 4.15777 125.349 2.67014 120.762 1.57666C120.762 1.57666 120.762 1.57666 120.75 1.57666C120.254 1.46223 119.745 1.34779 119.237 1.23335C119.237 1.23335 119.212 1.23335 119.199 1.23335C118.17 1.0172 117.128 0.839191 116.111 0.699327C116.061 0.699327 116.022 0.699327 115.972 0.686612C115.552 0.635752 115.133 0.584893 114.726 0.546748C114.587 0.546748 114.46 0.521318 114.32 0.521318C114.002 0.495889 113.684 0.483174 113.367 0.470459C113.214 0.470459 113.062 0.470459 112.909 0.470459C112.617 0.470459 112.338 0.470459 112.058 0.495889C111.918 0.495889 111.766 0.495889 111.626 0.521318C111.296 0.546748 110.965 0.584893 110.66 0.648467C110.609 0.648467 110.546 0.648467 110.495 0.673897C110.546 0.673897 110.597 0.673897 110.648 0.673897C111.092 0.686612 111.537 0.724757 111.994 0.762901C112.21 0.788331 112.427 0.813761 112.643 0.839191C112.935 0.877335 113.227 0.902765 113.519 0.953624C113.773 0.991769 114.028 1.02991 114.282 1.06806C114.536 1.1062 114.79 1.15706 115.031 1.20792C115.298 1.25878 115.565 1.30964 115.832 1.3605C116.048 1.41136 116.277 1.46222 116.493 1.50036C116.785 1.56394 117.064 1.62751 117.357 1.7038C117.471 1.72923 117.573 1.75466 117.687 1.79281C118.449 1.98353 119.199 2.18697 119.898 2.40312C119.923 2.40312 119.949 2.41584 119.974 2.42855C120.317 2.53027 120.648 2.63199 120.978 2.73371C121.067 2.75914 121.169 2.79728 121.258 2.82271C121.575 2.92443 121.88 3.02615 122.172 3.12787C122.249 3.1533 122.325 3.17873 122.388 3.20416C122.554 3.26773 122.744 3.31859 122.897 3.38217C122.897 3.38217 122.897 3.38217 122.884 3.38217C125.019 4.13234 126.429 4.74266 126.429 4.74266L129.301 4.19592L129.313 4.15777Z" fill="#66BB46"/>
<path d="M129.313 4.15777C129.313 4.15777 125.349 2.67014 120.762 1.57666C120.762 1.57666 120.762 1.57666 120.75 1.57666C120.254 1.46223 119.745 1.34779 119.237 1.23335C119.237 1.23335 119.212 1.23335 119.199 1.23335C118.17 1.0172 117.128 0.839191 116.111 0.699327C116.061 0.699327 116.022 0.699327 115.972 0.686612C115.552 0.635752 115.133 0.584893 114.726 0.546748C114.587 0.546748 114.46 0.521318 114.32 0.521318C114.002 0.495889 113.684 0.483174 113.367 0.470459C113.214 0.470459 113.062 0.470459 112.909 0.470459C112.617 0.470459 112.338 0.470459 112.058 0.495889C111.918 0.495889 111.766 0.495889 111.626 0.521318C111.296 0.546748 110.965 0.584893 110.66 0.648467C110.609 0.648467 110.546 0.648467 110.495 0.673897C110.546 0.673897 110.597 0.673897 110.648 0.673897C111.092 0.686612 111.537 0.724757 111.994 0.762901C112.21 0.788331 112.427 0.813761 112.643 0.839191C112.935 0.877335 113.227 0.902765 113.519 0.953624C113.773 0.991769 114.028 1.02991 114.282 1.06806C114.536 1.1062 114.79 1.15706 115.031 1.20792C115.298 1.25878 115.565 1.30964 115.832 1.3605C116.048 1.41136 116.277 1.46222 116.493 1.50036C116.785 1.56394 117.064 1.62751 117.357 1.7038C117.471 1.72923 117.573 1.75466 117.687 1.79281C118.449 1.98353 119.199 2.18697 119.898 2.40312C119.923 2.40312 119.949 2.41584 119.974 2.42855C120.317 2.53027 120.648 2.63199 120.978 2.73371C121.067 2.75914 121.169 2.79728 121.258 2.82271C121.575 2.92443 121.88 3.02615 122.172 3.12787C122.249 3.1533 122.325 3.17873 122.388 3.20416C122.554 3.26773 122.744 3.31859 122.897 3.38217C122.897 3.38217 122.897 3.38217 122.884 3.38217C125.019 4.13234 126.429 4.74266 126.429 4.74266L129.301 4.19592L129.313 4.15777Z" fill="#66BB46"/>
<path d="M8.92032 30.9099C8.62808 30.8464 8.32274 30.7955 8.0305 30.7319C11.0546 32.1305 14.6633 32.8807 18.399 33.2113C18.4752 33.2113 18.5642 33.2113 18.6531 33.2113C15.1715 32.8807 11.817 32.1814 8.93266 30.9226L8.92032 30.9099Z" fill="#66BB46"/>
<path d="M29.4279 30.8591C29.7329 30.7701 30.0378 30.681 30.3428 30.592C27.1789 31.2405 23.3542 31.8 19.2246 31.8762C22.9349 31.8381 26.4419 31.4058 29.4279 30.8591Z" fill="#66BB46"/>
<path d="M43.202 31.1896L40.8895 29.7147C38.615 29.88 36.2262 29.9309 33.8882 29.7528C32.8335 30.0326 31.6518 30.3123 30.3304 30.592C30.0254 30.681 29.7205 30.7827 29.4155 30.859C26.4168 31.4185 22.9229 31.8381 19.2126 31.8763C15.8962 31.9398 12.4019 31.6728 8.92032 30.9099C11.8047 32.156 15.1588 32.868 18.6404 33.1986C18.5642 33.1986 18.4752 33.1986 18.3863 33.1986C30.1652 34.2539 43.1893 31.1769 43.1893 31.1769L43.202 31.1896Z" fill="#66BB46"/>
<path d="M43.202 31.1896L40.8895 29.7147C38.615 29.88 36.2262 29.9309 33.8882 29.7528C32.8335 30.0326 31.6518 30.3123 30.3304 30.592C30.0254 30.681 29.7205 30.7827 29.4155 30.859C26.4168 31.4185 22.9229 31.8381 19.2126 31.8763C15.8962 31.9398 12.4019 31.6728 8.92032 30.9099C11.8047 32.156 15.1588 32.868 18.6404 33.1986C18.5642 33.1986 18.4752 33.1986 18.3863 33.1986C30.1652 34.2539 43.1893 31.1769 43.1893 31.1769L43.202 31.1896Z" fill="#66BB46"/>
<path d="M33.8882 29.7528C36.2262 29.9181 38.615 29.88 40.8895 29.7147L38.6399 28.2778C38.6399 28.2778 36.8229 28.9772 33.875 29.7528L33.8882 29.7528Z" fill="#66BB46"/>
<path d="M33.8882 29.7528C36.2262 29.9181 38.615 29.88 40.8895 29.7147L38.6399 28.2778C38.6399 28.2778 36.8229 28.9772 33.875 29.7528L33.8882 29.7528Z" fill="#66BB46"/>
<path d="M33.8882 29.7528C36.2262 29.9181 38.615 29.88 40.8895 29.7147L38.6399 28.2778C38.6399 28.2778 36.8229 28.9772 33.875 29.7528L33.8882 29.7528Z" fill="#66BB46"/>
</g>
<path d="M113.584 83.8294C113.584 83.8294 115.172 83.626 117.383 83.626C122.681 83.626 131.525 84.7957 131.525 92.4374C131.525 100.079 123.012 101.198 116.392 101.198C113.431 101.198 110.839 100.944 109.556 100.944V71.7249H130.153V75.7682H113.596V83.8167L113.584 83.8294ZM113.584 97.3453C113.584 97.3453 115.21 97.5996 117.383 97.5996C121.474 97.5996 127.396 96.8113 127.396 92.3865C127.396 88.7119 122.021 87.6693 117.434 87.6693C116.011 87.6693 114.676 87.7583 113.596 87.9236V97.3581L113.584 97.3453Z" fill="#101E2D"/>
<path d="M154.918 75.7809H139.988V83.6641H152.212V87.7075H139.988V96.8876H154.918V100.931H135.896V71.7122H154.918V75.7555V75.7809Z" fill="#101E2D"/>
<path d="M180.738 71.7376V75.7809H164.435V100.944H160.395V71.7249H180.75L180.738 71.7376Z" fill="#101E2D"/>
<path d="M194.333 101.325C187.573 101.325 182.16 95.3109 182.16 86.2197C182.16 76.62 187.535 71.3179 194.46 71.3179C201.385 71.3179 206.595 77.4592 206.595 86.2197C206.595 96.8239 200.381 101.325 194.333 101.325ZM194.333 96.9892C198.666 96.9892 202.338 92.6916 202.338 86.2197C202.338 81.3753 199.797 75.3231 194.46 75.3231C189.123 75.3231 186.417 80.7905 186.417 86.2197C186.417 92.5263 189.924 96.9892 194.346 96.9892H194.333Z" fill="#101E2D"/>
<path d="M214.066 100.944H210.025V71.7249H214.066C219.403 71.8139 227.535 72.9836 227.535 78.9469C227.535 82.1638 225.159 84.0329 222.198 85.0755C226.29 86.08 229.784 88.2033 229.784 92.4247C229.784 99.5196 220.064 100.817 214.066 100.944ZM214.066 74.9799V83.3208C218.196 83.2318 223.532 82.4435 223.532 78.9342C223.532 76.0098 218.615 75.0562 214.066 74.9671V74.9799ZM214.066 97.5996C218.983 97.5615 225.781 96.7223 225.781 92.4247C225.781 88.8391 219.53 87.7965 214.066 87.7456V97.5996Z" fill="#101E2D"/>
<path d="M245.553 101.325C238.793 101.325 233.38 95.3109 233.38 86.2197C233.38 76.62 238.755 71.3179 245.68 71.3179C252.605 71.3179 257.814 77.4592 257.814 86.2197C257.814 96.8239 251.601 101.325 245.553 101.325ZM245.553 96.9892C249.886 96.9892 253.558 92.6916 253.558 86.2197C253.558 81.3753 251.016 75.3231 245.68 75.3231C240.343 75.3231 237.637 80.7905 237.637 86.2197C237.637 92.5263 241.144 96.9892 245.565 96.9892H245.553Z" fill="#101E2D"/>
<path d="M280 75.7809H265.07V83.6641H277.294V87.7075H265.07V96.8876H280V100.931H260.979V71.7122H280V75.7555V75.7809Z" fill="#101E2D"/>
<path d="M196.2 57.8526H200.673L201.321 52.6141C200.737 52.8684 199.936 53.021 199.097 53.021C193.43 53.021 194.549 46.0659 194.549 46.0659H196.442C196.442 46.0659 195.705 51.0883 198.945 51.1264C201.207 51.1519 201.753 48.7233 201.956 47.312L202.109 46.0659H204.028L202.388 59.7344H196.226V57.8399L196.2 57.8526Z" fill="#101E2D"/>
<path d="M207.84 54.3052V59.7344H205.946V46.0659H206.455C209.288 46.0659 214.142 46.0913 214.142 50.0457C214.142 53.4787 210.241 54.2289 207.84 54.3052V54.3052ZM207.84 52.4361C209.695 52.4361 212.274 52.0292 212.274 50.0584C212.274 48.4182 209.898 47.9477 207.84 47.9477V52.4361V52.4361Z" fill="#101E2D"/>
<path d="M220.673 59.9125C217.509 59.9125 214.968 57.1025 214.968 52.843C214.968 48.3547 217.484 45.8625 220.724 45.8625C223.964 45.8625 226.391 48.7361 226.391 52.843C226.391 57.8018 223.507 59.9125 220.673 59.9125ZM220.673 57.8781C222.706 57.8781 224.421 55.8692 224.421 52.843C224.421 50.5798 223.227 47.7444 220.737 47.7444C218.246 47.7444 216.963 50.3 216.963 52.843C216.963 55.7929 218.602 57.8781 220.673 57.8781V57.8781Z" fill="#101E2D"/>
<path d="M237.573 46.0659V59.7344H235.68L235.654 51.902C235.184 52.5124 233.799 53.021 232.783 53.021C226.963 53.021 228.081 46.0659 228.081 46.0659H229.975C229.975 46.0659 229.238 51.0629 232.783 51.1264C235.451 51.1646 235.654 47.2611 235.654 46.0659H237.573Z" fill="#101E2D"/>
<path d="M248.386 46.0659H250.28V59.7344H248.386V51.7622L242.973 57.1787V59.7344H241.08V46.0659H242.973V54.5086L248.386 49.0921V46.0659V46.0659Z" fill="#101E2D"/>
<path d="M264.638 59.7471H252.414V46.0786H254.307V57.8399H258.272L258.297 46.0786H260.19L260.165 57.8399H264.231V46.0786H266.099V58.5392L269.301 61.7433L267.954 63.0657L264.638 59.7471V59.7471Z" fill="#101E2D"/>
<path d="M280 47.9604H273.011V51.6478H278.729V53.5423H273.011V57.8399H280V59.7344H271.093V46.0659H280V47.9604V47.9604Z" fill="#101E2D"/>
<path d="M109.556 112.59H110.267L114.321 118.566L118.374 112.59H119.086V122.686H118.336V113.913L114.346 119.723H114.282L110.293 113.913V122.686H109.568V112.59H109.556Z" fill="#101E2D"/>
<path d="M121.411 118.999C121.411 116.862 122.91 115.159 124.905 115.159C126.9 115.159 128.273 116.837 128.273 119.011C128.273 119.138 128.273 119.189 128.26 119.304H122.161C122.288 121.135 123.597 122.203 125.045 122.203C126.189 122.203 126.964 121.694 127.574 121.046L128.069 121.478C127.32 122.292 126.443 122.864 125.032 122.864C123.101 122.864 121.424 121.325 121.424 118.999H121.411ZM127.51 118.668C127.409 117.18 126.557 115.807 124.867 115.807C123.406 115.807 122.288 117.028 122.161 118.668H127.51Z" fill="#101E2D"/>
<path d="M129.835 119.011C129.835 116.901 131.474 115.159 133.583 115.159C134.968 115.159 135.858 115.794 136.506 116.532L136.01 117.04C135.375 116.392 134.651 115.833 133.558 115.833C131.932 115.833 130.585 117.257 130.585 119.024C130.585 120.791 131.932 122.215 133.609 122.215C134.651 122.215 135.426 121.656 136.048 120.957L136.569 121.414C135.82 122.266 134.93 122.877 133.571 122.877C131.449 122.877 129.822 121.147 129.822 119.024L129.835 119.011Z" fill="#101E2D"/>
<path d="M140.419 115.96H137.662V115.324H143.876V115.96H141.118V122.686H140.407V115.96H140.419Z" fill="#101E2D"/>
<path d="M144.715 119.011C144.715 116.951 146.316 115.159 148.501 115.159C150.687 115.159 152.262 116.913 152.262 119.011C152.262 121.109 150.661 122.864 148.476 122.864C146.29 122.864 144.715 121.109 144.715 119.011ZM151.5 119.011C151.5 117.244 150.128 115.82 148.476 115.82C146.824 115.82 145.477 117.244 145.477 119.011C145.477 120.779 146.799 122.203 148.501 122.203C150.204 122.203 151.5 120.779 151.5 119.011Z" fill="#101E2D"/>
<path d="M153.876 123.868C154.448 123.576 154.689 123.296 154.689 122.813V122.686H154.295V121.465H155.248V122.533C155.248 123.423 154.918 123.907 154.054 124.237L153.876 123.881V123.868Z" fill="#101E2D"/>
<path d="M162.097 115.337H166.951V115.972H162.796V122.699H162.084V115.349L162.097 115.337Z" fill="#101E2D"/>
<path d="M167.154 122.05H168.12C168.768 120.982 169.2 119.342 169.2 116.888V115.337H174.13V122.063H175.312L175.172 124.771H174.6V122.699H167.904L167.764 124.771H167.167V122.063L167.154 122.05ZM173.419 122.05V115.96H169.873V117.282C169.873 119.24 169.467 121.058 168.895 122.037H173.419V122.05Z" fill="#101E2D"/>
<path d="M176.595 118.999C176.595 116.862 178.094 115.159 180.089 115.159C182.084 115.159 183.456 116.837 183.456 119.011C183.456 119.138 183.456 119.189 183.444 119.304H177.344C177.471 121.135 178.78 122.203 180.229 122.203C181.372 122.203 182.147 121.694 182.757 121.046L183.253 121.478C182.503 122.292 181.627 122.864 180.216 122.864C178.285 122.864 176.607 121.325 176.607 118.999H176.595ZM182.694 118.668C182.592 117.18 181.741 115.807 180.051 115.807C178.59 115.807 177.471 117.028 177.344 118.668H182.694Z" fill="#101E2D"/>
<path d="M192.161 118.935L189.264 115.324H190.141L192.618 118.439L195.096 115.324H195.947L193.05 118.91L196.062 122.673H195.185L192.593 119.393L190.001 122.673H189.149L192.161 118.922V118.935Z" fill="#101E2D"/>
<path d="M197.129 119.011C197.129 116.951 198.73 115.159 200.915 115.159C203.101 115.159 204.677 116.913 204.677 119.011C204.677 121.109 203.076 122.864 200.89 122.864C198.705 122.864 197.129 121.109 197.129 119.011ZM203.914 119.011C203.914 117.244 202.542 115.82 200.89 115.82C199.238 115.82 197.891 117.244 197.891 119.011C197.891 120.779 199.213 122.203 200.915 122.203C202.618 122.203 203.914 120.779 203.914 119.011Z" fill="#101E2D"/>
<path d="M206.862 115.337H207.574V116.977C208.209 116.011 209.149 115.159 210.598 115.159C212.377 115.159 214.169 116.583 214.169 119.011C214.169 121.44 212.364 122.864 210.598 122.864C209.124 122.864 208.171 122.025 207.574 121.109V125H206.862V115.337V115.337ZM213.406 119.011C213.406 117.079 212.059 115.833 210.522 115.833C208.984 115.833 207.523 117.117 207.523 119.024C207.523 120.931 208.997 122.177 210.522 122.177C212.047 122.177 213.406 121.008 213.406 118.999V119.011Z" fill="#101E2D"/>
<path d="M215.871 119.011C215.871 116.951 217.472 115.159 219.658 115.159C221.843 115.159 223.419 116.913 223.419 119.011C223.419 121.109 221.818 122.864 219.632 122.864C217.447 122.864 215.871 121.109 215.871 119.011ZM222.656 119.011C222.656 117.244 221.284 115.82 219.632 115.82C217.98 115.82 216.633 117.244 216.633 119.011C216.633 120.779 217.955 122.203 219.658 122.203C221.36 122.203 222.656 120.779 222.656 119.011Z" fill="#101E2D"/>
<path d="M225.604 115.337H226.315V122.063H230.381V115.337H231.093V122.063H235.159V115.337H235.87V122.686H225.616V115.337H225.604Z" fill="#101E2D"/>
<path d="M238.044 119.011C238.044 116.951 239.645 115.159 241.83 115.159C244.016 115.159 245.592 116.913 245.592 119.011C245.592 121.109 243.991 122.864 241.805 122.864C239.62 122.864 238.044 121.109 238.044 119.011ZM244.829 119.011C244.829 117.244 243.457 115.82 241.805 115.82C240.153 115.82 238.806 117.244 238.806 119.011C238.806 120.779 240.128 122.203 241.83 122.203C243.533 122.203 244.829 120.779 244.829 119.011Z" fill="#101E2D"/>
</svg>
