<svg xmlns="http://www.w3.org/2000/svg" xmlns:xlink="http://www.w3.org/1999/xlink"><symbol id="icon-arr-left" viewBox="0 0 24 42"><path d="M22.99 40.99a3 3 0 01-4.243 0L1.121 23.364a3 3 0 114.243-4.243L22.99 36.748a3 3 0 010 4.242z"/><path d="M22.99 1.121a3 3 0 00-4.243 0L1.121 18.748a3 3 0 104.243 4.242L22.99 5.364a3 3 0 000-4.243z"/></symbol><symbol id="icon-arr-right" viewBox="0 0 24 42"><path d="M1.12 1.121a3 3 0 014.244 0L22.99 18.748a3 3 0 11-4.243 4.242L1.121 5.364a3 3 0 010-4.243z"/><path d="M1.12 40.99a3 3 0 004.244 0L22.99 23.364a3 3 0 10-4.243-4.243L1.121 36.748a3 3 0 000 4.242z"/></symbol><symbol id="icon-children" viewBox="0 0 43 44"><path d="M0 25.597c.107-.434.16-.88.318-1.303.428-1.153 1.204-1.993 2.311-2.53.197-.096.293-.208.314-.426.356-3.636 1.917-6.734 4.379-9.4 2.744-2.973 6.132-4.878 10.088-5.806.145-.034.31 0 .466-.116-.355-.34-.793-.484-1.235-.606-.501-.138-1.019-.178-1.539-.188-.963-.02-1.509-.592-1.484-1.54.021-.79.657-1.31 1.564-1.3 1.748.022 3.356.435 4.693 1.624.203.18.42.345.63.516.253-.622.588-1.294 1.052-1.897 1.02-1.33 2.375-2.156 3.987-2.582.721-.191 1.448.272 1.646.996.216.792-.18 1.51-.971 1.749-1.076.324-1.966.906-2.613 1.83-.185.264-.304.561-.422.86-.095.243-.034.292.211.32 2.02.227 3.972.725 5.801 1.611 5.461 2.647 9.114 6.782 10.575 12.698.099.396.153.805.203 1.212.031.25.136.392.37.519 2.17 1.176 3.167 3.596 2.4 5.872-.468 1.387-1.401 2.378-2.787 2.92-.233.091-.38.209-.458.46-1.192 3.766-3.596 6.594-6.92 8.696-2.207 1.396-4.62 2.296-7.174 2.833a1.156 1.156 0 00-.446.212c-2.214 1.573-4.805 1.557-7.001-.052-.191-.14-.403-.169-.613-.214-3.198-.693-6.122-1.968-8.678-4.016-2.47-1.98-4.241-4.44-5.187-7.46-.058-.186-.124-.33-.343-.416-1.73-.676-2.768-1.92-3.08-3.745-.007-.036-.037-.066-.055-.1v-1.233L0 25.597zm20.86 9.873c2.722.01 5.04-.68 6.464-1.74.659-.49.808-1.34.35-1.978-.458-.635-1.279-.777-1.97-.358-2.804 1.7-5.614 1.687-8.421.005-.32-.193-.658-.302-1.036-.222-.63.134-1.046.496-1.173 1.133-.122.607.113 1.095.611 1.433 1.74 1.18 3.685 1.711 5.175 1.726v.001zm-5.786-12.746c-1.212-.006-2.167.918-2.17 2.099a2.144 2.144 0 002.133 2.147c1.166.011 2.165-.975 2.158-2.131a2.133 2.133 0 00-2.121-2.116zm12.9 0a2.13 2.13 0 00-2.187 2.088c-.027 1.15.955 2.148 2.13 2.166 1.146.018 2.129-.932 2.16-2.088.03-1.184-.893-2.135-2.103-2.165z"/></symbol><symbol id="icon-close" viewBox="0 0 37 37"><path d="M1.12 35.77a3 3 0 010-4.243L31.527 1.12a3 3 0 114.243 4.243L5.364 35.77a3 3 0 01-4.243 0z"/><path d="M35.77 35.77a3 3 0 01-4.243 0L1.12 5.364a3 3 0 014.243-4.243l30.405 30.406a3 3 0 010 4.243z"/></symbol><symbol id="icon-home" viewBox="0 0 48 44"><path d="M47.42 24.105C40.087 16.327 32.763 8.542 25.436.76c-.947-1.006-2.067-1.013-3.007-.018-1.934 2.05-3.864 4.104-5.797 6.155C11.296 12.563 5.964 18.231.622 23.891c-.646.685-.8 1.416-.411 2.273.361.8 1.05.914 1.822.91 1.446-.008 2.894.014 4.339-.013.409-.007.5.111.497.5-.018 2.448-.01 4.897-.01 7.345v7.08c0 1.428.57 1.996 1.999 1.997H22.932a6.48 6.48 0 01-.665-2.76c-.003-.277-.143-.354-.355-.431-3.096-1.128-4.796-3.532-4.798-6.776 0-1.55-.003-3.1.001-4.65.003-1.043.408-1.566 1.44-1.783.288-.06.275-.197.274-.394-.002-.969-.006-1.938 0-2.906.006-1.128.65-1.8 1.713-1.798 1.065 0 1.707.67 1.713 1.8a120.6 120.6 0 01-.004 2.853c-.006.305.052.439.405.428.874-.025 1.75-.024 2.624 0 .341.01.419-.104.413-.42a105.04 105.04 0 01-.005-2.906c.009-1.088.66-1.752 1.704-1.755 1.047-.003 1.71.657 1.721 1.738.01.969.011 1.938-.003 2.906-.004.284.041.414.377.472.78.135 1.307.646 1.314 1.389.024 2.11.215 4.237-.081 6.33-.383 2.705-1.956 4.556-4.592 5.453-.406.139-.471.322-.43.675.126 1.072.759 2.001 1.647 2.534h1.482c.22.015.442.02.668.015.268-.007.537-.011.805-.015h7.878v-.002l.907.002c1.51 0 2.065-.548 2.065-2.037 0-4.773.009-9.546-.012-14.32-.003-.487.142-.576.594-.566 1.464.029 2.929.01 4.393.01.723 0 1.333-.18 1.672-.894.374-.788.213-1.443-.379-2.07h.002z"/></symbol><symbol id="icon-inst" viewBox="0 0 25 25"><path d="M0 19.389V5.623c.057-.046.046-.103.057-.16.034-.376.114-.741.228-1.095C1.152 1.734 3.515.011 6.287 0h12.38c.89 0 1.757.137 2.556.525 2.453 1.174 3.754 3.125 3.766 5.85.022 4.072 0 8.155.011 12.227 0 1.06-.205 2.064-.707 3-.947 1.767-2.42 2.85-4.37 3.284-.183.034-.366.034-.537.114H5.614c-.034-.011-.069-.046-.103-.046a5.855 5.855 0 01-2.1-.65c-1.78-.946-2.875-2.418-3.297-4.38-.046-.182-.046-.364-.114-.535zm12.494-12.09c-2.887.023-5.203 2.338-5.191 5.201a5.197 5.197 0 005.203 5.19c2.875 0 5.237-2.362 5.203-5.213-.034-2.885-2.362-5.2-5.215-5.178zm8.33-1.574a1.55 1.55 0 10-3.104.012c0 .855.696 1.54 1.563 1.54.856 0 1.54-.685 1.54-1.552z"/></symbol><symbol id="icon-menu" viewBox="0 0 34 24"><path d="M0 2a2 2 0 012-2h30a2 2 0 110 4H2a2 2 0 01-2-2zM0 12a2 2 0 012-2h30a2 2 0 110 4H2a2 2 0 01-2-2zM0 22a2 2 0 012-2h30a2 2 0 110 4H2a2 2 0 01-2-2z"/></symbol><symbol id="icon-panorama" viewBox="0 0 45 38"><path d="M44.704 0h.088v36.99c-.266-.202-.453-.34-.634-.482-2.333-1.831-4.773-3.495-7.47-4.75-5.568-2.588-11.407-3.582-17.516-3.01a33.668 33.668 0 00-9.058 2.153C6.391 32.34 3.118 34.522.024 37.003c0-12.203 0-24.405.005-36.607C.028.266-.073.098.109 0c.56.597 1.25 1.028 1.9 1.51 8.484 6.3 17.902 8.264 28.19 5.994 5.43-1.198 10.136-3.882 14.42-7.366.04-.032.057-.091.085-.138zm-2.666 22.47l.094-.08V5.313c-13.175 7.704-26.317 7.7-39.448 0v26.454c.805-.469 1.568-.924 2.342-1.357.373-.208.7-.458 1.002-.762 3.674-3.693 7.356-7.377 11.026-11.074.25-.251.379-.28.642-.011 1.417 1.45 2.863 2.872 4.283 4.321.245.25.366.228.6-.008 3.206-3.23 6.427-6.45 9.633-9.682.26-.263.389-.296.67-.011 2.934 2.967 5.887 5.917 8.83 8.874.123.123.219.274.327.41v.002z"/><path d="M9.197 12.366c2.136-.007 3.92 1.772 3.938 3.925.018 2.139-1.751 3.933-3.903 3.96-2.144.027-3.964-1.787-3.96-3.947.005-2.148 1.782-3.93 3.925-3.938z"/></symbol><symbol id="icon-phone" viewBox="0 0 24 22"><path d="M0 4.35c.56-.704 1.107-1.42 1.72-2.085C2.4 1.54 3.08.808 3.958.264 4.51-.083 5.047-.077 5.624.209c.92.462 1.702 1.083 2.418 1.782.668.654 1.275 1.352 1.654 2.188.15.325.259.66.223 1.017-.03.275-.163.5-.38.693-.39.347-.823.633-1.274.908-.337.203-.692.39-1.017.61-.794.528-.998 1.116-.74 1.985.18.605.524 1.133.95 1.606a30.909 30.909 0 004.5 4.113c.59.44 1.239.798 2.009.919.764.12 1.401-.055 1.87-.655.38-.49.692-1.017 1.09-1.495.174-.21.36-.413.553-.61.385-.402.86-.485 1.401-.364.746.165 1.384.523 1.98.94 1.022.71 1.912 1.535 2.622 2.52.15.208.27.434.39.66.23.433.139.824-.126 1.214-.373.55-.866 1.007-1.39 1.441a27.758 27.758 0 01-2.94 2.117c-.067.039-.12.088-.187.132h-.421c-.036-.01-.072-.027-.108-.027-.89-.077-1.75-.286-2.593-.545-2.448-.764-4.71-1.853-6.85-3.173-1.613-.99-3.056-2.144-4.241-3.563A27.523 27.523 0 011.6 9.42C1.047 8.325.571 7.204.259 6.027.144 5.603.09 5.174.006 4.746V4.36L0 4.35z"/></symbol><symbol id="icon-play" viewBox="0 0 32 33"><path d="M28.669 12.083c3.543 1.879 3.543 6.956 0 8.835L7.592 32.093C4.262 33.859.25 31.445.25 27.675V5.325C.25 1.556 4.262-.858 7.592.908L28.67 12.083z"/></symbol><symbol id="icon-road" viewBox="0 0 54 36"><path d="M53.739 31.75L40.633 1.752C40.164.684 39.149 0 38.035 0h-9.147l.23 2.167a.75.75 0 01-.745.83h-2.737a.75.75 0 01-.746-.83L25.12 0h-9.146c-1.123 0-2.137.684-2.599 1.752L.262 31.75C-.607 33.733.777 36 2.86 36h18.456l.969-9.154a1.5 1.5 0 011.49-1.345h6.45c.769 0 1.414.577 1.491 1.345L32.685 36H51.14c2.083 0 3.467-2.26 2.598-4.25zM24.414 6.67a.744.744 0 01.745-.668h3.682a.75.75 0 01.746.668l.43 4.089a1.131 1.131 0 01-1.122 1.245h-3.797a1.127 1.127 0 01-1.122-1.245l.43-4.089h.008zm5.18 15.825h-5.18a1.5 1.5 0 01-1.492-1.66l.477-4.496a1.5 1.5 0 011.491-1.345h4.236c.768 0 1.414.576 1.491 1.345l.477 4.496c.092.884-.6 1.66-1.492 1.66h-.007z"/></symbol><symbol id="icon-rotate" viewBox="0 0 44 40"><path d="M24.984 0c-.13.043-.268.03-.402.051-.8.123-1.47.473-1.97 1.12a3.02 3.02 0 00-.587 1.423c-.031.21-.039.42-.039.632V22.71c0 4.677-.003 9.353-.005 14.029 0 .364.04.72.203 1.053a.325.325 0 01.027.088c.01.061-.015.104-.078.116a.473.473 0 01-.117.013c-.387-.023-.774-.004-1.162-.004H10.198c-.911 0-1.823.005-2.734.008-.079 0-.159.001-.237-.007-.17-.019-.222-.073-.238-.242-.003-.039-.003-.079-.003-.119l.005-6.327.003-3.976-.003-1.545-.006-4.809c0-.198-.005-.396-.005-.594 0-.327.061-.388.384-.387 1.215 0 2.43.003 3.645.005.58.001 1.162.005 1.743.005h6.008c.163 0 .326-.003.486-.043.487-.124.789-.557.747-1.07a.989.989 0 00-.915-.889 3.133 3.133 0 00-.237-.01l-7.42-.006a3325.099 3325.099 0 00-7.224.006c-.467.001-.934-.007-1.4.015-.666.032-1.266.257-1.76.715-.512.471-.863 1.04-.997 1.732-.02.099.005.204-.04.299v16.46c.045.095.02.198.038.297a3.004 3.004 0 002.426 2.43c.076.014.159.004.23.047h38.533c.081-.04.172-.033.257-.049 1.357-.242 2.473-1.365 2.49-2.962.01-1.055.001-2.11.002-3.166 0-.055-.018-.115.023-.165V3.091c-.024-.029-.02-.065-.024-.1-.022-.2-.038-.402-.079-.6A2.933 2.933 0 0041.364.047C41.24.031 41.111.042 40.99 0H24.984zm-.999 18.253h-.002v-6.327l-.002-6.076c0-.283.054-.341.337-.346.18-.002.361.004.541.005 1.277.002 2.553.005 3.83.005 3.147 0 6.293-.004 9.44-.005h3.5c.049 0 .097.001.145.007.128.017.18.066.196.191.008.066.01.132.01.198l-.005 2.813c-.002 1.224-.004 2.448-.004 3.672 0 4.117.002 8.234.004 12.35 0 1.964.003 3.928.005 5.892 0 .057-.003.114-.01.17-.015.128-.061.178-.19.199-.06.01-.123.01-.184.01-.99 0-1.98 0-2.97-.002-1.211-.002-2.421-.006-3.631-.006-1.4 0-2.8.004-4.2.006l-6.456.003a.942.942 0 01-.184-.017c-.088-.018-.137-.072-.16-.156a.606.606 0 01-.015-.157l.001-.463.005-4.966v-7.001.001zm9.127 15.961c.845 0 1.69-.002 2.534 0a1.25 1.25 0 011.204 1.57c-.147.56-.638.937-1.224.938h-4.58c-.162 0-.325.002-.487 0a1.254 1.254 0 01-1.217-1.206 1.247 1.247 0 011.264-1.301h2.507z"/><path d="M17.616 0c-.042.035-.093.02-.14.021-.37.012-.738.04-1.106.077a11.06 11.06 0 00-1.784.353c-1.407.385-2.75.924-4.002 1.679-2.066 1.246-3.652 2.948-4.8 5.065a17.234 17.234 0 00-1.369 3.383c-.017.057-.014.15-.07.16-.07.014-.095-.079-.129-.13-.075-.12-.142-.244-.213-.365-.06-.103-.115-.209-.182-.306-.265-.385-.65-.494-1.077-.415-.51.094-.921.714-.722 1.279.03.083.067.162.111.239l1.904 3.337c.037.064.075.129.118.19.315.46.847.589 1.335.32.377-.208.751-.422 1.125-.636.787-.45 1.572-.904 2.359-1.354.23-.132.402-.316.479-.572.126-.423.012-.785-.307-1.079a.96.96 0 00-1.096-.137c-.2.1-.394.214-.589.325l-1.158.66c-.04.023-.081.052-.14.06.003-.16.031-.31.056-.46.106-.664.324-1.296.568-1.92.457-1.17 1.05-2.266 1.822-3.26 1.227-1.58 2.78-2.73 4.62-3.5.9-.378 1.83-.654 2.787-.839a9.036 9.036 0 011.35-.141c.247-.01.494-.006.74-.027a.981.981 0 00.852-.598C19.2.887 18.886.127 18.19.028c-.043-.006-.089-.003-.128-.029h-.449l.002.001z"/></symbol><symbol id="icon-scheme" viewBox="0 0 74 70"><g clip-path="url(#clip0_160_325)"><path d="M14.318 55.2a2.205 2.205 0 00-2.221 2.164c-.015 1.18.993 2.21 2.176 2.228 1.188.017 2.196-.984 2.204-2.183a2.177 2.177 0 00-2.162-2.21h.003zM36.644 25.611a21.621 21.621 0 01-1.432-1.436c-.277-.31-.448-.325-.75-.012-1.282 1.32-2.604 2.607-3.89 3.928-.303.312-.472.367-.808.02-1.278-1.329-2.603-2.61-3.887-3.93-.284-.29-.459-.35-.752-.02-.451.503-.934.978-1.435 1.432-.299.273-.284.44 0 .72 1.35 1.326 2.672 2.682 4.024 4.01.262.258.24.387-.007.63-1.35 1.328-2.67 2.684-4.024 4.008-.297.29-.27.457.012.719.508.47.999.964 1.467 1.473.244.265.396.245.642-.005 1.34-1.36 2.702-2.7 4.042-4.063.241-.247.373-.267.627-.007 1.32 1.356 2.662 2.692 4 4.033.106.107.218.205.318.294.16-.015.224-.124.304-.204.515-.512 1.013-1.044 1.546-1.536.279-.257.276-.41.003-.677-1.34-1.313-2.647-2.66-3.99-3.97-.306-.3-.29-.463.008-.755 1.34-1.313 2.647-2.662 3.984-3.975.276-.27.274-.422-.005-.68l.003.003zM57.535 16.22c1.2-.003 2.2-1.004 2.192-2.198-.008-1.186-1.029-2.2-2.206-2.198-1.196.005-2.177 1.002-2.174 2.213 0 1.213.976 2.185 2.19 2.18l-.002.002zM16.477 14.037c0-1.209-.98-2.208-2.176-2.213-1.18-.005-2.201 1.012-2.206 2.198-.005 1.196.988 2.192 2.191 2.197a2.18 2.18 0 002.191-2.182zM39.134 57.371c-.005 1.212.97 2.21 2.169 2.22 1.178.008 2.2-1.006 2.213-2.192.013-1.194-.983-2.198-2.186-2.203a2.175 2.175 0 00-2.196 2.175zM57.506 38.94a2.177 2.177 0 00-2.161 2.21c.007 1.2 1.016 2.202 2.203 2.182 1.186-.017 2.192-1.049 2.177-2.227a2.205 2.205 0 00-2.221-2.165h.002z"/><path d="M66.782 8.286c-2.926-2.38-5.344-2.702-14.52-4.495-24.179-4.785-32.921-7.589-46.246 7.73C-.41 20.224-.159 29.906.102 39.923-.55 55.4 3.857 65.528 17.85 68.324c11.47 2.293 19.45 3.864 33.875-6.704 8.449-4.715 10.613-4.75 13.623-8.036 7.291-11.785 14.455-34.178 1.435-45.298zm-4.983 33.3c-.324 2.178-1.89 3.682-4.007 3.844-1.827.14-3.605-1.006-4.268-2.8-.13-.351-.293-.451-.65-.449-2.026.015-4.05 0-6.078.01-2.532.01-4.407 1.893-4.415 4.435-.007 2.05 0 4.098-.005 6.148 0 .283.048.445.359.56 1.865.69 3.025 2.457 2.876 4.322-.162 2.038-1.529 3.547-3.59 3.969-.08.015-.153.065-.227.1h-.912c-.06-.028-.12-.073-.181-.085-1.716-.298-2.864-1.274-3.447-2.912-.102-.285-.284-.28-.51-.28-5.956 0-11.91.003-17.866-.005-.3 0-.434.088-.54.38-.529 1.43-1.545 2.345-3.016 2.744-.194.053-.411.015-.58.152h-.912c-.09-.09-.212-.09-.326-.114-1.773-.39-2.886-1.479-3.38-3.22-.049-.174-.009-.374-.144-.526v-1.017c.033-.057.085-.11.098-.17.31-1.655 1.27-2.771 2.836-3.346.326-.12.334-.31.334-.574 0-11.363-.005-22.727.007-34.09 0-.352-.117-.49-.436-.61-1.41-.531-2.293-1.555-2.69-3.01-.041-.158.01-.348-.146-.47v-1.017c.147-.167.11-.387.16-.579a4.328 4.328 0 013.949-3.251c1.82-.108 3.538.998 4.2 2.75.142.374.307.504.717.504 11.28-.013 22.56-.013 33.84 0 .374 0 .553-.093.693-.465.702-1.883 2.662-3.052 4.527-2.747 2.164.352 3.653 1.965 3.765 4.078.097 1.833-1.041 3.569-2.812 4.22-.33.123-.43.268-.43.612.01 5.944.01 11.887 0 17.833 0 .312.074.464.396.582 1.89.691 3.097 2.642 2.82 4.5l-.01-.005z"/><path d="M56.493 36.485c-.008-5.944-.008-11.887 0-17.833 0-.32-.095-.467-.409-.582-1.205-.437-2.079-1.25-2.53-2.462-.154-.417-.348-.552-.794-.55-5.605.018-11.213.013-16.818.013-5.64 0-11.28.005-16.92-.007-.393 0-.59.097-.732.49-.436 1.213-1.29 2.057-2.495 2.494-.379.137-.468.322-.466.697.013 3.353.008 6.705.008 10.058 0 7.942 0 15.885-.008 23.826 0 .38.065.597.473.742 1.248.447 2.09 1.341 2.535 2.59.105.292.242.387.543.387 5.944-.008 11.888-.008 17.831 0 .324 0 .461-.108.573-.417.45-1.246 1.305-2.125 2.555-2.572.356-.128.448-.307.446-.662-.015-1.998-.01-3.996-.005-5.996.01-3.828 2.796-6.613 6.626-6.62 1.992-.005 3.984-.005 5.978.002.292 0 .486-.03.605-.372.446-1.29 1.335-2.18 2.618-2.637.323-.115.39-.284.39-.594l-.004.005zm-16.84-10.226a576.2 576.2 0 00-3.908 3.91c-.533.537-.518.415-.017.92 1.287 1.295 2.572 2.592 3.872 3.873.269.264.316.412.012.709a276.701 276.701 0 00-4.442 4.452c-.261.268-.396.288-.667.008-1.31-1.344-2.652-2.655-3.962-4-.286-.295-.443-.325-.747-.013-1.307 1.346-2.642 2.667-3.97 3.993-.101.102-.22.192-.34.295-.115-.103-.205-.175-.287-.258-1.516-1.518-3.028-3.044-4.554-4.555-.227-.224-.212-.344.005-.559 1.357-1.343 2.694-2.71 4.059-4.048.296-.29.261-.447-.013-.717-1.324-1.303-2.622-2.637-3.951-3.938-.29-.282-.337-.434-.018-.744 1.487-1.453 2.95-2.93 4.408-4.415.274-.28.425-.3.712-.008 1.31 1.344 2.652 2.657 3.961 4 .282.288.436.28.713-.002 1.322-1.356 2.674-2.682 3.999-4.035.254-.26.393-.242.637.007a430.64 430.64 0 004.512 4.525c.25.248.212.378-.015.6z"/></g><defs><clipPath id="clip0_160_325"><path d="M0 0h74v70H0z"/></clipPath></defs></symbol><symbol id="icon-sectors" viewBox="0 0 116 65"><path d="M89.102 62.972c-6.315 0-12.63.075-18.945-.021-6.772-.097-8.762-1.705-8.83-7.872-.161-14.82-.058-29.641-.058-44.462 0-4.332 2.368-6.434 6.967-6.456 9.723-.042 19.459-.043 29.182-.16 3.123-.033 4.725 1.404 5.377 4.064 4.061 16.44 8.145 32.88 12.149 49.341.869 3.582-.869 5.513-4.839 5.523-7.001.022-13.99 0-20.992 0-.011.022-.011.032-.011.043zM28.66 31.947c-6.167 0-12.335-.16-18.491.053-4.483.16-6.672-1.65-7.223-5.63-.584-4.235-1.341-8.449-1.914-12.684C-.206 4.587 4.586-.744 14.319.096c11.396.98 22.7 2.8 34.026 4.395 4.357.618 6.478 3.182 6.42 7.311-.068 4.587-.126 9.184-.023 13.77.092 4.215-2.224 6.14-6.546 6.183-6.511.064-12.71.192-19.223.192h-.312zM53.624 48.505c.169 13.746-.575 14.358-14.902 14.839-9.402.317-18.792 1.005-28.17 1.606-5.794.371-7.745-1.268-7.542-6.884.17-4.535.643-9.07.834-13.604.158-3.737 2.108-5.693 5.907-5.945 12.907-.852 25.814-1.693 38.733-2.502 3.032-.185 4.87 1.333 5.095 4.207.214 2.754.045 5.53.045 8.283z"/></symbol><symbol id="icon-shop" viewBox="0 0 49 41"><path d="M48.5 22.604v.897s-.058.046-.068.072c-.495 1.423-1.172 1.948-2.666 2.03-.308.015-.365.137-.36.392.01 1.133 0 2.265 0 3.402 0 2.968.01 5.932 0 8.9-.005 1.83-1.593 3.065-3.312 2.601-1.161-.316-1.89-1.295-1.89-2.596-.005-4.034-.01-8.068.01-12.098 0-.49-.146-.601-.63-.601-3.099.02-6.197.02-9.296 0-.469 0-.594.117-.594.581.021 3.983.01 7.966.01 11.95 0 1.856-1.035 2.866-2.936 2.866H6.546c-1.927 0-2.974-1.02-2.974-2.892 0-3.983 0-7.966.005-11.95 0-.382-.052-.55-.51-.555-1.672-.03-2.833-1.449-2.51-3.055.86-4.264 1.724-8.523 2.599-12.781.255-1.24 1.28-2.06 2.588-2.06h37.485c1.339 0 2.344.815 2.61 2.095.62 3.02 1.223 6.039 1.854 9.058.26 1.25.442 2.52.812 3.749l-.005-.005zm-31.877 3.009c-2.453 0-4.9.005-7.353-.01-.375 0-.5.091-.5.474.015 3.116.015 6.232 0 9.348 0 .373.109.48.49.48 4.915-.01 9.837-.01 14.753 0 .38 0 .49-.097.484-.474-.016-3.116-.02-6.233 0-9.349 0-.433-.167-.48-.531-.48-2.453.01-4.9.006-7.354.006l.01.005zM43.287 0c.12.143.307.127.464.189 1.114.438 1.812 1.596 1.625 2.718-.209 1.26-1.203 2.147-2.464 2.198-.15.005-.307.005-.458.005H6.526c-.683 0-1.323-.081-1.88-.5-.771-.58-1.151-1.356-1.052-2.305.109-.99.66-1.693 1.588-2.101.167-.071.338-.138.505-.21h37.595l.005.006z"/></symbol><symbol id="icon-soc-tgm" viewBox="0 0 13 13"><g clip-path="url(#clip0_160_981)"><path d="M11.945.766L.429 5.66c-.465.229-.621.686-.111.932l2.954 1.036 7.141-4.868c.39-.305.788-.223.446.112L4.724 8.998l-.192 2.592c.179.4.505.403.713.204l1.697-1.772 2.907 2.4c.675.44 1.042.157 1.187-.65l1.908-9.955c.197-.994-.14-1.431-1.002-1.051h.003z"/></g><defs><clipPath id="clip0_160_981"><path transform="translate(0 .63)" d="M0 0h13v12H0z"/></clipPath></defs></symbol><symbol id="icon-soc-wapp" viewBox="0 0 12 12"><g clip-path="url(#clip0_160_977)"><path fill-rule="evenodd" clip-rule="evenodd" d="M5.997 0A6.006 6.006 0 000 6c0 1.313.422 2.53 1.143 3.518l-.748 2.23L2.7 11.01A5.95 5.95 0 006 12a6.006 6.006 0 005.998-6c0-3.308-2.688-6-5.995-6h-.006zM4.322 3.047c-.117-.277-.205-.29-.38-.297-.06-.002-.127-.007-.2-.007-.23 0-.47.067-.612.215-.177.18-.612.6-.612 1.46s.627 1.692.712 1.81c.087.117 1.222 1.907 2.988 2.637 1.38.572 1.787.518 2.102.453.457-.1 1.032-.438 1.178-.848.145-.41.145-.758.102-.833-.043-.074-.157-.117-.335-.204-.178-.088-1.033-.513-1.195-.568-.158-.06-.31-.038-.43.13-.17.237-.335.475-.47.62-.105.112-.277.127-.423.067-.194-.08-.737-.272-1.407-.867-.518-.463-.87-1.038-.973-1.21-.102-.178-.01-.278.07-.375.088-.11.173-.188.26-.29.088-.103.138-.155.196-.275.06-.117.017-.237-.026-.325-.042-.087-.394-.95-.54-1.297l-.005.004z"/></g><defs><clipPath id="clip0_160_977"><path d="M0 0h12v12H0z"/></clipPath></defs></symbol> <view id="icon-arr-left-view-blue" viewBox="0 0 24 42"/><view id="icon-arr-left-view-green" viewBox="0 52 24 42"/><view id="icon-arr-left-view-dark" viewBox="0 104 24 42"/><view id="icon-arr-left-view-white" viewBox="0 156 24 42"/><view id="icon-arr-right-view-blue" viewBox="0 208 24 42"/><view id="icon-arr-right-view-green" viewBox="0 260 24 42"/><view id="icon-arr-right-view-dark" viewBox="0 312 24 42"/><view id="icon-arr-right-view-white" viewBox="0 364 24 42"/><view id="icon-children-view-blue" viewBox="0 416 43 44"/><view id="icon-children-view-green" viewBox="0 470 43 44"/><view id="icon-children-view-dark" viewBox="0 524 43 44"/><view id="icon-children-view-white" viewBox="0 578 43 44"/><view id="icon-close-view-blue" viewBox="0 632 37 37"/><view id="icon-close-view-green" viewBox="0 679 37 37"/><view id="icon-close-view-dark" viewBox="0 726 37 37"/><view id="icon-close-view-white" viewBox="0 773 37 37"/><view id="icon-home-view-blue" viewBox="0 820 48 44"/><view id="icon-home-view-green" viewBox="0 874 48 44"/><view id="icon-home-view-dark" viewBox="0 928 48 44"/><view id="icon-home-view-white" viewBox="0 982 48 44"/><view id="icon-inst-view-blue" viewBox="0 1036 25 25"/><view id="icon-inst-view-green" viewBox="0 1071 25 25"/><view id="icon-inst-view-dark" viewBox="0 1106 25 25"/><view id="icon-inst-view-white" viewBox="0 1141 25 25"/><view id="icon-menu-view-blue" viewBox="0 1176 34 24"/><view id="icon-menu-view-green" viewBox="0 1210 34 24"/><view id="icon-menu-view-dark" viewBox="0 1244 34 24"/><view id="icon-menu-view-white" viewBox="0 1278 34 24"/><view id="icon-panorama-view-blue" viewBox="0 1312 45 38"/><view id="icon-panorama-view-green" viewBox="0 1360 45 38"/><view id="icon-panorama-view-dark" viewBox="0 1408 45 38"/><view id="icon-panorama-view-white" viewBox="0 1456 45 38"/><view id="icon-phone-view-blue" viewBox="0 1504 24 22"/><view id="icon-phone-view-green" viewBox="0 1536 24 22"/><view id="icon-phone-view-dark" viewBox="0 1568 24 22"/><view id="icon-phone-view-white" viewBox="0 1600 24 22"/><view id="icon-play-view-blue" viewBox="0 1632 32 33"/><view id="icon-play-view-green" viewBox="0 1675 32 33"/><view id="icon-play-view-dark" viewBox="0 1718 32 33"/><view id="icon-play-view-white" viewBox="0 1761 32 33"/><view id="icon-road-view-blue" viewBox="0 1804 54 36"/><view id="icon-road-view-green" viewBox="0 1850 54 36"/><view id="icon-road-view-dark" viewBox="0 1896 54 36"/><view id="icon-road-view-white" viewBox="0 1942 54 36"/><view id="icon-rotate-view-blue" viewBox="0 1988 44 40"/><view id="icon-rotate-view-green" viewBox="0 2038 44 40"/><view id="icon-rotate-view-dark" viewBox="0 2088 44 40"/><view id="icon-rotate-view-white" viewBox="0 2138 44 40"/><view id="icon-scheme-view-blue" viewBox="0 2188 74 70"/><view id="icon-scheme-view-green" viewBox="0 2268 74 70"/><view id="icon-scheme-view-dark" viewBox="0 2348 74 70"/><view id="icon-scheme-view-white" viewBox="0 2428 74 70"/><view id="icon-sectors-view-blue" viewBox="0 2508 116 65"/><view id="icon-sectors-view-green" viewBox="0 2583 116 65"/><view id="icon-sectors-view-dark" viewBox="0 2658 116 65"/><view id="icon-sectors-view-white" viewBox="0 2733 116 65"/><view id="icon-shop-view-blue" viewBox="0 2808 49 41"/><view id="icon-shop-view-green" viewBox="0 2859 49 41"/><view id="icon-shop-view-dark" viewBox="0 2910 49 41"/><view id="icon-shop-view-white" viewBox="0 2961 49 41"/><view id="icon-soc-tgm-view-blue" viewBox="0 3012 13 13"/><view id="icon-soc-tgm-view-green" viewBox="0 3035 13 13"/><view id="icon-soc-tgm-view-dark" viewBox="0 3058 13 13"/><view id="icon-soc-tgm-view-white" viewBox="0 3081 13 13"/><view id="icon-soc-wapp-view-blue" viewBox="0 3104 12 12"/><view id="icon-soc-wapp-view-green" viewBox="0 3126 12 12"/><view id="icon-soc-wapp-view-dark" viewBox="0 3148 12 12"/><view id="icon-soc-wapp-view-white" viewBox="0 3170 12 12"/> <use xlink:href="#icon-arr-left" x="0" y="0" width="24" height="42" style="fill:#009BDD"/><use xlink:href="#icon-arr-left" x="0" y="52" width="24" height="42" style="fill:#66BB46"/><use xlink:href="#icon-arr-left" x="0" y="104" width="24" height="42" style="fill:#121E2D"/><use xlink:href="#icon-arr-left" x="0" y="156" width="24" height="42" style="fill:#ffffff"/><use xlink:href="#icon-arr-right" x="0" y="208" width="24" height="42" style="fill:#009BDD"/><use xlink:href="#icon-arr-right" x="0" y="260" width="24" height="42" style="fill:#66BB46"/><use xlink:href="#icon-arr-right" x="0" y="312" width="24" height="42" style="fill:#121E2D"/><use xlink:href="#icon-arr-right" x="0" y="364" width="24" height="42" style="fill:#ffffff"/><use xlink:href="#icon-children" x="0" y="416" width="43" height="44" style="fill:#009BDD"/><use xlink:href="#icon-children" x="0" y="470" width="43" height="44" style="fill:#66BB46"/><use xlink:href="#icon-children" x="0" y="524" width="43" height="44" style="fill:#121E2D"/><use xlink:href="#icon-children" x="0" y="578" width="43" height="44" style="fill:#ffffff"/><use xlink:href="#icon-close" x="0" y="632" width="37" height="37" style="fill:#009BDD"/><use xlink:href="#icon-close" x="0" y="679" width="37" height="37" style="fill:#66BB46"/><use xlink:href="#icon-close" x="0" y="726" width="37" height="37" style="fill:#121E2D"/><use xlink:href="#icon-close" x="0" y="773" width="37" height="37" style="fill:#ffffff"/><use xlink:href="#icon-home" x="0" y="820" width="48" height="44" style="fill:#009BDD"/><use xlink:href="#icon-home" x="0" y="874" width="48" height="44" style="fill:#66BB46"/><use xlink:href="#icon-home" x="0" y="928" width="48" height="44" style="fill:#121E2D"/><use xlink:href="#icon-home" x="0" y="982" width="48" height="44" style="fill:#ffffff"/><use xlink:href="#icon-inst" x="0" y="1036" width="25" height="25" style="fill:#009BDD"/><use xlink:href="#icon-inst" x="0" y="1071" width="25" height="25" style="fill:#66BB46"/><use xlink:href="#icon-inst" x="0" y="1106" width="25" height="25" style="fill:#121E2D"/><use xlink:href="#icon-inst" x="0" y="1141" width="25" height="25" style="fill:#ffffff"/><use xlink:href="#icon-menu" x="0" y="1176" width="34" height="24" style="fill:#009BDD"/><use xlink:href="#icon-menu" x="0" y="1210" width="34" height="24" style="fill:#66BB46"/><use xlink:href="#icon-menu" x="0" y="1244" width="34" height="24" style="fill:#121E2D"/><use xlink:href="#icon-menu" x="0" y="1278" width="34" height="24" style="fill:#ffffff"/><use xlink:href="#icon-panorama" x="0" y="1312" width="45" height="38" style="fill:#009BDD"/><use xlink:href="#icon-panorama" x="0" y="1360" width="45" height="38" style="fill:#66BB46"/><use xlink:href="#icon-panorama" x="0" y="1408" width="45" height="38" style="fill:#121E2D"/><use xlink:href="#icon-panorama" x="0" y="1456" width="45" height="38" style="fill:#ffffff"/><use xlink:href="#icon-phone" x="0" y="1504" width="24" height="22" style="fill:#009BDD"/><use xlink:href="#icon-phone" x="0" y="1536" width="24" height="22" style="fill:#66BB46"/><use xlink:href="#icon-phone" x="0" y="1568" width="24" height="22" style="fill:#121E2D"/><use xlink:href="#icon-phone" x="0" y="1600" width="24" height="22" style="fill:#ffffff"/><use xlink:href="#icon-play" x="0" y="1632" width="32" height="33" style="fill:#009BDD"/><use xlink:href="#icon-play" x="0" y="1675" width="32" height="33" style="fill:#66BB46"/><use xlink:href="#icon-play" x="0" y="1718" width="32" height="33" style="fill:#121E2D"/><use xlink:href="#icon-play" x="0" y="1761" width="32" height="33" style="fill:#ffffff"/><use xlink:href="#icon-road" x="0" y="1804" width="54" height="36" style="fill:#009BDD"/><use xlink:href="#icon-road" x="0" y="1850" width="54" height="36" style="fill:#66BB46"/><use xlink:href="#icon-road" x="0" y="1896" width="54" height="36" style="fill:#121E2D"/><use xlink:href="#icon-road" x="0" y="1942" width="54" height="36" style="fill:#ffffff"/><use xlink:href="#icon-rotate" x="0" y="1988" width="44" height="40" style="fill:#009BDD"/><use xlink:href="#icon-rotate" x="0" y="2038" width="44" height="40" style="fill:#66BB46"/><use xlink:href="#icon-rotate" x="0" y="2088" width="44" height="40" style="fill:#121E2D"/><use xlink:href="#icon-rotate" x="0" y="2138" width="44" height="40" style="fill:#ffffff"/><use xlink:href="#icon-scheme" x="0" y="2188" width="74" height="70" style="fill:#009BDD"/><use xlink:href="#icon-scheme" x="0" y="2268" width="74" height="70" style="fill:#66BB46"/><use xlink:href="#icon-scheme" x="0" y="2348" width="74" height="70" style="fill:#121E2D"/><use xlink:href="#icon-scheme" x="0" y="2428" width="74" height="70" style="fill:#ffffff"/><use xlink:href="#icon-sectors" x="0" y="2508" width="116" height="65" style="fill:#009BDD"/><use xlink:href="#icon-sectors" x="0" y="2583" width="116" height="65" style="fill:#66BB46"/><use xlink:href="#icon-sectors" x="0" y="2658" width="116" height="65" style="fill:#121E2D"/><use xlink:href="#icon-sectors" x="0" y="2733" width="116" height="65" style="fill:#ffffff"/><use xlink:href="#icon-shop" x="0" y="2808" width="49" height="41" style="fill:#009BDD"/><use xlink:href="#icon-shop" x="0" y="2859" width="49" height="41" style="fill:#66BB46"/><use xlink:href="#icon-shop" x="0" y="2910" width="49" height="41" style="fill:#121E2D"/><use xlink:href="#icon-shop" x="0" y="2961" width="49" height="41" style="fill:#ffffff"/><use xlink:href="#icon-soc-tgm" x="0" y="3012" width="13" height="13" style="fill:#009BDD"/><use xlink:href="#icon-soc-tgm" x="0" y="3035" width="13" height="13" style="fill:#66BB46"/><use xlink:href="#icon-soc-tgm" x="0" y="3058" width="13" height="13" style="fill:#121E2D"/><use xlink:href="#icon-soc-tgm" x="0" y="3081" width="13" height="13" style="fill:#ffffff"/><use xlink:href="#icon-soc-wapp" x="0" y="3104" width="12" height="12" style="fill:#009BDD"/><use xlink:href="#icon-soc-wapp" x="0" y="3126" width="12" height="12" style="fill:#66BB46"/><use xlink:href="#icon-soc-wapp" x="0" y="3148" width="12" height="12" style="fill:#121E2D"/><use xlink:href="#icon-soc-wapp" x="0" y="3170" width="12" height="12" style="fill:#ffffff"/></svg>