<svg width="165" height="231" viewBox="0 0 165 231" fill="none" xmlns="http://www.w3.org/2000/svg">
<path d="M11.1686 0.199951H0.224609V17H11.1686V14.672H2.57661V9.39195H9.60861V7.06395H2.57661V2.52795H11.1686V0.199951Z" fill="#66BB46"/>
<path d="M25.2379 7.90395L18.4459 7.92795L26.1979 0.199951H22.9099L16.8379 6.24795V0.199951H14.5099V17H16.8379V10.256H22.9099L22.9339 17H25.2619L25.2379 8.62395V7.90395Z" fill="#66BB46"/>
<path d="M41.6608 17L36.9808 0.199951H32.1808L27.4768 17H29.9248L31.3888 11.672H37.7728L39.2608 17H41.6608ZM33.9328 2.52795H35.2288L37.1248 9.34395H32.0368L33.9328 2.52795Z" fill="#66BB46"/>
<path d="M43.1486 0.199951V2.52795H48.3806V17H50.7086V2.52795H55.7006V0.199951H43.1486Z" fill="#66BB46"/>
<path d="M68.6842 0.199951H57.7402V17H68.6842V14.672H60.0922V9.39195H67.1242V7.06395H60.0922V2.52795H68.6842V0.199951Z" fill="#66BB46"/>
<path d="M81.9135 5.09595C81.9135 0.223951 75.9375 0.199951 72.4575 0.199951H71.8335V17H74.1615V10.328C77.1135 10.232 81.9135 9.31995 81.9135 5.09595ZM74.1615 2.50395C76.6815 2.50395 79.6095 3.07995 79.6095 5.09595C79.6095 7.51995 76.4415 8.02395 74.1615 8.02395V2.50395Z" fill="#66BB46"/>
<path d="M92.4585 3.91995L85.8105 10.568V0.199951H83.4825V17H85.8105V13.856L92.4585 7.20795V17H94.7865V0.199951H92.4585V3.91995Z" fill="#66BB46"/>
<path d="M107.309 6.94395H100.661V0.199951H98.333V17H100.661V9.27195H107.309V17H109.637V0.199951H107.309V6.94395Z" fill="#66BB46"/>
<path d="M114.963 2.52795H124.491V0.199951H112.659V17C113.403 17 114.867 17.144 116.571 17.144C120.387 17.144 125.283 16.472 125.283 12.104C125.283 7.71195 120.219 7.03995 117.171 7.03995C115.875 7.03995 114.963 7.15995 114.963 7.15995V2.52795ZM114.963 9.51195C115.587 9.41595 116.379 9.36795 117.195 9.36795C119.835 9.36795 122.907 9.96795 122.907 12.08C122.907 14.624 119.499 15.08 117.147 15.08C115.923 15.08 114.963 14.936 114.963 14.936V9.51195Z" fill="#66BB46"/>
<path d="M129.186 17H136.77L138.786 0.199951H136.434L136.242 1.73595C136.002 3.46395 135.33 6.43995 132.546 6.41595C128.562 6.36795 129.474 0.199951 129.474 0.199951H127.146C127.146 0.199951 125.778 8.74395 132.738 8.74395C133.77 8.74395 134.754 8.55195 135.474 8.23995L134.682 14.672H129.186V17Z" fill="#66BB46"/>
<path d="M151.242 5.09595C151.242 0.223951 145.266 0.199951 141.786 0.199951H141.162V17H143.49V10.328C146.442 10.232 151.242 9.31995 151.242 5.09595ZM143.49 2.50395C146.01 2.50395 148.938 3.07995 148.938 5.09595C148.938 7.51995 145.77 8.02395 143.49 8.02395V2.50395Z" fill="#66BB46"/>
<path d="M152.787 0.199951V17H155.115V2.52795H164.019V0.199951H152.787Z" fill="#66BB46"/>
<path d="M33.7454 109.528H43.2734V107.2H31.4414V124C32.1854 124 33.6494 124.144 35.3534 124.144C39.1694 124.144 44.0654 123.472 44.0654 119.104C44.0654 114.712 39.0014 114.04 35.9534 114.04C34.6574 114.04 33.7454 114.16 33.7454 114.16V109.528ZM33.7454 116.512C34.3694 116.416 35.1614 116.368 35.9774 116.368C38.6174 116.368 41.6894 116.968 41.6894 119.08C41.6894 121.624 38.2814 122.08 35.9294 122.08C34.7054 122.08 33.7454 121.936 33.7454 121.936V116.512Z" fill="#66BB46"/>
<path d="M57.5444 107.2H46.6004V124H57.5444V121.672H48.9524V116.392H55.9844V114.064H48.9524V109.528H57.5444V107.2Z" fill="#66BB46"/>
<path d="M60.6937 107.2V124H63.0217V109.528H71.9257V107.2H60.6937Z" fill="#66BB46"/>
<path d="M87.5885 115.528C87.5885 110.488 84.7565 106.96 80.6285 106.96C76.6445 106.96 73.5485 110.008 73.5485 115.528C73.5485 120.76 76.6685 124.216 80.5565 124.216C84.0365 124.216 87.5885 121.624 87.5885 115.528ZM75.9965 115.528C75.9965 112.408 77.5325 109.264 80.6285 109.264C83.7005 109.264 85.1645 112.744 85.1645 115.528C85.1645 119.248 83.0525 121.72 80.5565 121.72C78.0125 121.72 75.9965 119.152 75.9965 115.528Z" fill="#66BB46"/>
<path d="M101.574 119.104C101.574 116.68 99.5575 115.456 97.2055 114.88C98.9095 114.28 100.278 113.2 100.278 111.352C100.278 107.92 95.5975 107.248 92.5255 107.2H90.1975V124H92.5255C95.9815 123.928 101.574 123.184 101.574 119.104ZM97.9735 111.352C97.9735 113.368 94.9015 113.824 92.5255 113.872V109.072C95.1415 109.12 97.9735 109.672 97.9735 111.352ZM92.5255 116.416C95.6695 116.44 99.2695 117.04 99.2695 119.104C99.2695 121.576 95.3575 122.056 92.5255 122.08V116.416Z" fill="#66BB46"/>
<path d="M118.01 115.528C118.01 110.488 115.178 106.96 111.05 106.96C107.066 106.96 103.97 110.008 103.97 115.528C103.97 120.76 107.09 124.216 110.978 124.216C114.458 124.216 118.01 121.624 118.01 115.528ZM106.418 115.528C106.418 112.408 107.954 109.264 111.05 109.264C114.122 109.264 115.586 112.744 115.586 115.528C115.586 119.248 113.474 121.72 110.978 121.72C108.434 121.72 106.418 119.152 106.418 115.528Z" fill="#66BB46"/>
<path d="M131.419 107.2H120.475V124H131.419V121.672H122.827V116.392H129.859V114.064H122.827V109.528H131.419V107.2Z" fill="#66BB46"/>
<path d="M28.6449 231L23.9649 214.2H19.1649L14.4609 231H16.9089L18.3729 225.672H24.7569L26.2449 231H28.6449ZM20.9169 216.528H22.2129L24.1089 223.344H19.0209L20.9169 216.528Z" fill="#66BB46"/>
<path d="M39.5648 214.2H34.7407L30.0367 231H32.4608L36.5168 216.528H37.7887L41.8207 231H44.2448L39.5648 214.2Z" fill="#66BB46"/>
<path d="M60.9184 231L56.2384 214.2H51.4384L46.7344 231H49.1824L50.6464 225.672H57.0304L58.5184 231H60.9184ZM53.1904 216.528H54.4864L56.3824 223.344H51.2944L53.1904 216.528Z" fill="#66BB46"/>
<path d="M75.7262 214.2H64.1102V231H66.4382V216.528H73.3982V231H75.7262V214.2Z" fill="#66BB46"/>
<path d="M93.1215 231L88.4415 214.2H83.6415L78.9375 231H81.3855L82.8495 225.672H89.2335L90.7215 231H93.1215ZM85.3935 216.528H86.6895L88.5855 223.344H83.4975L85.3935 216.528Z" fill="#66BB46"/>
<path d="M106.129 214.2H95.1853V231H106.129V228.672H97.5373V223.392H104.569V221.064H97.5373V216.528H106.129V214.2Z" fill="#66BB46"/>
<path d="M120.487 226.104C120.487 223.68 118.471 222.456 116.119 221.88C117.823 221.28 119.191 220.2 119.191 218.352C119.191 214.92 114.511 214.248 111.439 214.2H109.111V231H111.439C114.895 230.928 120.487 230.184 120.487 226.104ZM116.887 218.352C116.887 220.368 113.815 220.824 111.439 220.872V216.072C114.055 216.12 116.887 216.672 116.887 218.352ZM111.439 223.416C114.583 223.44 118.183 224.04 118.183 226.104C118.183 228.576 114.271 229.056 111.439 229.08V223.416Z" fill="#66BB46"/>
<path d="M134.235 228.672C128.883 228.432 125.475 227.208 125.475 222.6C125.475 217.728 128.907 216.576 134.211 216.552L134.235 214.224C128.331 214.224 123.147 215.28 123.147 222.6C123.147 229.872 128.355 231 134.235 231V228.672Z" fill="#66BB46"/>
<path d="M148.745 221.904L141.953 221.928L149.705 214.2H146.417L140.345 220.248V214.2H138.017V231H140.345V224.256H146.417L146.441 231H148.769L148.745 222.624V221.904Z" fill="#66BB46"/>
<g clip-path="url(#clip0_161_8319)">
<path d="M25.0006 63.5488V59.1354C25.1325 58.8143 25.2999 58.529 25.5637 58.289C27.1406 56.846 28.7143 55.3932 30.2847 53.9372C30.9605 53.3146 31.7457 53 32.6596 53C36.5535 53 40.4474 53 44.3413 53C45.2553 53 46.0373 53.3178 46.7163 53.9372C48.2513 55.3445 49.8121 56.7195 51.331 58.1431C51.8459 58.623 52.3898 58.8208 53.0817 58.8143C54.2498 58.7981 55.418 58.7365 56.583 58.8533C58.3111 59.0251 59.727 60.3385 59.9459 62.0442C60.0424 62.803 59.9813 63.5845 59.9845 64.3531C59.9877 65.4459 59.402 66.049 58.3143 66.0685C57.7833 66.0782 57.2523 66.0588 56.7213 66.075C56.48 66.0815 56.3963 66.0036 56.3802 65.7572C56.3223 64.8427 55.9426 64.0645 55.3022 63.4224C54.1758 62.2874 52.792 61.8983 51.2474 62.1447C49.1781 62.4722 47.7718 64.0482 47.6688 65.848C47.656 66.0555 47.5626 66.0717 47.4017 66.0717C44.1321 66.0717 40.8658 66.0685 37.5962 66.0717C37.3838 66.0717 37.3227 66.0069 37.3066 65.7929C37.2647 65.1151 37.033 64.5022 36.6501 63.9412C35.646 62.4657 33.683 61.7556 31.8165 62.2096C29.8502 62.6895 28.6531 64.272 28.592 65.8123C28.5855 66.0134 28.5019 66.075 28.3088 66.0717C27.7842 66.062 27.279 65.9939 26.7931 65.7767C25.818 65.3356 25.2419 64.5768 24.9941 63.5456L25.0006 63.5488ZM49.6544 58.7592C49.6544 58.6684 49.5804 58.636 49.5321 58.5938C48.1902 57.3648 46.8418 56.139 45.5031 54.9068C45.1619 54.5922 44.7726 54.443 44.3156 54.443C42.6164 54.443 40.9205 54.4495 39.2213 54.4366C38.9671 54.4366 38.906 54.5176 38.9092 54.7608C38.9188 55.9834 38.9253 57.2027 38.906 58.4252C38.8995 58.7527 39.0089 58.8111 39.3082 58.8111C42.6454 58.8014 45.9826 58.8046 49.3197 58.8014C49.4291 58.8014 49.5514 58.8403 49.6544 58.7592ZM27.3627 58.7203C27.3691 58.7463 27.3787 58.7754 27.3852 58.8014C27.855 58.8014 28.3217 58.8014 28.7915 58.8014C31.5172 58.8014 34.2429 58.8014 36.9687 58.8014C37.1843 58.8014 37.3388 58.8111 37.3323 58.4966C37.313 57.2383 37.3194 55.9834 37.3323 54.7252C37.3323 54.4852 37.2519 54.4301 37.0298 54.4333C35.9807 54.443 34.9284 54.4398 33.8793 54.4366C31.8487 54.4366 32.1737 54.3231 30.687 55.6786C29.5767 56.6903 28.4729 57.7021 27.3659 58.7171L27.3627 58.7203Z" fill="#66BB46"/>
<path d="M51.9078 63.1759C52.8249 63.1759 53.5297 63.4061 54.1379 63.899C55.6408 65.1183 55.5603 67.3072 53.9513 68.3806C52.7638 69.1718 51.512 69.1945 50.2794 68.4876C49.2496 67.8974 48.7122 66.7624 48.8828 65.6729C49.063 64.5184 49.9962 63.5521 51.203 63.2667C51.4798 63.2018 51.7597 63.1727 51.9078 63.1759Z" fill="#66BB46"/>
<path d="M32.9583 63.1759C33.8561 63.1791 34.6446 63.471 35.2914 64.1098C36.4242 65.2286 36.4049 66.9667 35.2592 68.0725C34.0363 69.2496 31.9639 69.2853 30.7185 68.1341C29.9268 67.4045 29.5954 66.4965 29.8625 65.4361C30.1585 64.2557 30.9856 63.5877 32.1216 63.2699C32.3951 63.1921 32.6783 63.1726 32.9615 63.1759H32.9583Z" fill="#66BB46"/>
</g>
<path d="M104.314 75V67.46L102.676 67.915L102.338 66.615L104.782 65.835H105.9V75H104.314Z" fill="#101E2D"/>
<path d="M107.765 76.885L107.596 76.222C108.342 76.0747 108.714 75.715 108.714 75.143C108.714 75.1257 108.71 75.0997 108.701 75.065C108.701 75.039 108.701 75.0174 108.701 75H108.038V73.219H109.767V74.727C109.767 75.429 109.603 75.949 109.273 76.287C108.944 76.6337 108.441 76.833 107.765 76.885Z" fill="#101E2D"/>
<path d="M114.597 75.156C113.323 75.156 112.21 74.6924 111.256 73.765L112.244 72.608C113.024 73.336 113.804 73.7 114.584 73.7C115.13 73.7 115.568 73.557 115.897 73.271C116.227 72.9764 116.391 72.5864 116.391 72.101C116.391 71.6417 116.214 71.2777 115.858 71.009C115.512 70.7317 115.061 70.593 114.506 70.593C113.96 70.593 113.401 70.7274 112.829 70.996L111.867 70.359L112.127 65.9H117.561V67.317H113.505L113.362 69.449C113.839 69.2757 114.32 69.189 114.805 69.189C115.733 69.189 116.491 69.436 117.08 69.93C117.67 70.424 117.964 71.139 117.964 72.075C117.964 73.0024 117.652 73.7477 117.028 74.311C116.413 74.8744 115.603 75.156 114.597 75.156Z" fill="#101E2D"/>
<path d="M127.791 75V72.439C127.115 72.7857 126.434 72.959 125.75 72.959C125.048 72.959 124.48 72.7727 124.047 72.4C123.622 72.0187 123.41 71.4857 123.41 70.801V68.136H124.983V70.424C124.983 70.7534 125.087 71.035 125.295 71.269C125.503 71.503 125.776 71.62 126.114 71.62C126.703 71.62 127.262 71.4684 127.791 71.165V68.136H129.364V75H127.791Z" fill="#101E2D"/>
<path d="M137.096 75H135.536V74.155C134.981 74.8137 134.24 75.143 133.313 75.143C132.628 75.143 132.047 74.9567 131.571 74.584C131.103 74.2027 130.869 73.674 130.869 72.998C130.869 72.2614 131.124 71.7024 131.636 71.321C132.147 70.9397 132.819 70.749 133.651 70.749C134.318 70.749 134.951 70.8444 135.549 71.035V70.905C135.549 70.4284 135.401 70.0644 135.107 69.813C134.821 69.5617 134.405 69.436 133.859 69.436C133.235 69.436 132.58 69.579 131.896 69.865L131.467 68.604C132.316 68.2227 133.187 68.032 134.08 68.032C135.076 68.032 135.826 68.2834 136.329 68.786C136.84 69.2887 137.096 70.0037 137.096 70.931V75ZM135.575 72.517V72.127C135.107 71.945 134.582 71.854 134.002 71.854C133.508 71.854 133.122 71.9494 132.845 72.14C132.567 72.3307 132.429 72.5994 132.429 72.946C132.429 73.258 132.554 73.505 132.806 73.687C133.057 73.869 133.373 73.96 133.755 73.96C134.283 73.96 134.717 73.8257 135.055 73.557C135.401 73.2884 135.575 72.9417 135.575 72.517Z" fill="#101E2D"/>
<path d="M142.138 75.156C141.124 75.156 140.279 74.8137 139.603 74.129C138.927 73.4357 138.589 72.595 138.589 71.607V71.581C138.589 70.593 138.927 69.748 139.603 69.046C140.288 68.344 141.137 67.993 142.151 67.993C143.261 67.993 144.175 68.3874 144.894 69.176L143.919 70.229C143.373 69.657 142.78 69.371 142.138 69.371C141.575 69.371 141.103 69.5834 140.721 70.008C140.349 70.4327 140.162 70.9484 140.162 71.555V71.581C140.162 72.205 140.353 72.7294 140.734 73.154C141.124 73.5787 141.618 73.791 142.216 73.791C142.849 73.791 143.443 73.505 143.997 72.933L144.946 73.869C144.574 74.285 144.166 74.6057 143.724 74.831C143.291 75.0477 142.762 75.156 142.138 75.156Z" fill="#101E2D"/>
<path d="M152.089 75H150.529V74.155C149.974 74.8137 149.233 75.143 148.306 75.143C147.621 75.143 147.04 74.9567 146.564 74.584C146.096 74.2027 145.862 73.674 145.862 72.998C145.862 72.2614 146.117 71.7024 146.629 71.321C147.14 70.9397 147.812 70.749 148.644 70.749C149.311 70.749 149.944 70.8444 150.542 71.035V70.905C150.542 70.4284 150.394 70.0644 150.1 69.813C149.814 69.5617 149.398 69.436 148.852 69.436C148.228 69.436 147.573 69.579 146.889 69.865L146.46 68.604C147.309 68.2227 148.18 68.032 149.073 68.032C150.069 68.032 150.819 68.2834 151.322 68.786C151.833 69.2887 152.089 70.0037 152.089 70.931V75ZM150.568 72.517V72.127C150.1 71.945 149.575 71.854 148.995 71.854C148.501 71.854 148.115 71.9494 147.838 72.14C147.56 72.3307 147.422 72.5994 147.422 72.946C147.422 73.258 147.547 73.505 147.799 73.687C148.05 73.869 148.366 73.96 148.748 73.96C149.276 73.96 149.71 73.8257 150.048 73.557C150.394 73.2884 150.568 72.9417 150.568 72.517Z" fill="#101E2D"/>
<path d="M104.314 58V50.46L102.676 50.915L102.338 49.615L104.782 48.835H105.9V58H104.314Z" fill="#101E2D"/>
<path d="M107.791 58V56.739L110.924 54.074C111.566 53.5367 112.008 53.0947 112.25 52.748C112.502 52.3927 112.627 52.0157 112.627 51.617C112.627 51.1837 112.489 50.8414 112.211 50.59C111.934 50.33 111.583 50.2 111.158 50.2C110.76 50.2 110.4 50.3084 110.079 50.525C109.767 50.7417 109.425 51.0884 109.052 51.565L107.921 50.681C108.389 50.0224 108.87 49.5414 109.364 49.238C109.867 48.926 110.504 48.77 111.275 48.77C112.168 48.77 112.892 49.0214 113.446 49.524C114.001 50.0267 114.278 50.6897 114.278 51.513C114.278 51.8684 114.235 52.189 114.148 52.475C114.062 52.7524 113.906 53.0384 113.68 53.333C113.464 53.619 113.225 53.8834 112.965 54.126C112.714 54.36 112.363 54.6634 111.912 55.036L110.04 56.596H114.369V58H107.791Z" fill="#101E2D"/>
<path d="M119.82 58.156C118.641 58.156 117.688 57.7097 116.96 56.817C116.232 55.9157 115.868 54.7934 115.868 53.45C115.868 52.124 116.236 51.0104 116.973 50.109C117.718 49.199 118.676 48.744 119.846 48.744C121.016 48.744 121.965 49.1947 122.693 50.096C123.43 50.9974 123.798 52.1154 123.798 53.45C123.798 54.776 123.425 55.894 122.68 56.804C121.943 57.7054 120.99 58.156 119.82 58.156ZM118.156 55.777C118.589 56.401 119.153 56.713 119.846 56.713C120.539 56.713 121.094 56.4054 121.51 55.79C121.935 55.166 122.147 54.386 122.147 53.45C122.147 52.5314 121.93 51.76 121.497 51.136C121.064 50.5034 120.505 50.187 119.82 50.187C119.127 50.187 118.568 50.499 118.143 51.123C117.727 51.7384 117.519 52.514 117.519 53.45C117.519 54.3687 117.731 55.1444 118.156 55.777Z" fill="#101E2D"/>
<path d="M125.522 58V51.136H127.082V54.425L130.072 51.136H131.918L129.253 54.022L132.139 58H130.28L128.2 55.166L127.082 56.349V58H125.522Z" fill="#101E2D"/>
<path d="M133.228 58V51.136H134.788L136.933 54.321L139.091 51.136H140.651V58H139.065V53.424L136.907 56.505L134.762 53.45V58H133.228Z" fill="#101E2D"/>
<g clip-path="url(#clip1_161_8319)">
<path d="M25.0006 170.549V166.135C25.1325 165.814 25.2999 165.529 25.5637 165.289C27.1406 163.846 28.7143 162.393 30.2847 160.937C30.9605 160.315 31.7457 160 32.6596 160C36.5535 160 40.4474 160 44.3413 160C45.2553 160 46.0373 160.318 46.7163 160.937C48.2513 162.345 49.8121 163.719 51.331 165.143C51.8459 165.623 52.3898 165.821 53.0817 165.814C54.2498 165.798 55.418 165.737 56.583 165.853C58.3111 166.025 59.727 167.338 59.9459 169.044C60.0424 169.803 59.9813 170.585 59.9845 171.353C59.9877 172.446 59.402 173.049 58.3143 173.069C57.7833 173.078 57.2523 173.059 56.7213 173.075C56.48 173.081 56.3963 173.004 56.3802 172.757C56.3223 171.843 55.9426 171.064 55.3022 170.422C54.1758 169.287 52.792 168.898 51.2474 169.145C49.1781 169.472 47.7718 171.048 47.6688 172.848C47.656 173.056 47.5626 173.072 47.4017 173.072C44.1321 173.072 40.8658 173.069 37.5962 173.072C37.3838 173.072 37.3227 173.007 37.3066 172.793C37.2647 172.115 37.033 171.502 36.6501 170.941C35.646 169.466 33.683 168.756 31.8165 169.21C29.8502 169.69 28.6531 171.272 28.592 172.812C28.5855 173.013 28.5019 173.075 28.3088 173.072C27.7842 173.062 27.279 172.994 26.7931 172.777C25.818 172.336 25.2419 171.577 24.9941 170.546L25.0006 170.549ZM49.6544 165.759C49.6544 165.668 49.5804 165.636 49.5321 165.594C48.1902 164.365 46.8418 163.139 45.5031 161.907C45.1619 161.592 44.7726 161.443 44.3156 161.443C42.6164 161.443 40.9205 161.45 39.2213 161.437C38.9671 161.437 38.906 161.518 38.9092 161.761C38.9188 162.983 38.9253 164.203 38.906 165.425C38.8995 165.753 39.0089 165.811 39.3082 165.811C42.6454 165.801 45.9826 165.805 49.3197 165.801C49.4291 165.801 49.5514 165.84 49.6544 165.759ZM27.3627 165.72C27.3691 165.746 27.3787 165.775 27.3852 165.801C27.855 165.801 28.3217 165.801 28.7915 165.801C31.5172 165.801 34.2429 165.801 36.9687 165.801C37.1843 165.801 37.3388 165.811 37.3323 165.497C37.313 164.238 37.3194 162.983 37.3323 161.725C37.3323 161.485 37.2519 161.43 37.0298 161.433C35.9807 161.443 34.9284 161.44 33.8793 161.437C31.8487 161.437 32.1737 161.323 30.687 162.679C29.5767 163.69 28.4729 164.702 27.3659 165.717L27.3627 165.72Z" fill="#66BB46"/>
<path d="M51.9078 170.176C52.8249 170.176 53.5297 170.406 54.1379 170.899C55.6408 172.118 55.5603 174.307 53.9513 175.381C52.7638 176.172 51.512 176.195 50.2794 175.488C49.2496 174.897 48.7122 173.762 48.8828 172.673C49.063 171.518 49.9962 170.552 51.203 170.267C51.4798 170.202 51.7597 170.173 51.9078 170.176Z" fill="#66BB46"/>
<path d="M32.9583 170.176C33.8561 170.179 34.6446 170.471 35.2914 171.11C36.4242 172.229 36.4049 173.967 35.2592 175.073C34.0363 176.25 31.9639 176.285 30.7185 175.134C29.9268 174.404 29.5954 173.497 29.8625 172.436C30.1585 171.256 30.9856 170.588 32.1216 170.27C32.3951 170.192 32.6783 170.173 32.9615 170.176H32.9583Z" fill="#66BB46"/>
</g>
<path d="M102.637 182V180.739L105.77 178.074C106.411 177.537 106.853 177.095 107.096 176.748C107.347 176.393 107.473 176.016 107.473 175.617C107.473 175.184 107.334 174.841 107.057 174.59C106.779 174.33 106.428 174.2 106.004 174.2C105.605 174.2 105.245 174.308 104.925 174.525C104.613 174.742 104.27 175.088 103.898 175.565L102.767 174.681C103.235 174.022 103.716 173.541 104.21 173.238C104.712 172.926 105.349 172.77 106.121 172.77C107.013 172.77 107.737 173.021 108.292 173.524C108.846 174.027 109.124 174.69 109.124 175.513C109.124 175.868 109.08 176.189 108.994 176.475C108.907 176.752 108.751 177.038 108.526 177.333C108.309 177.619 108.071 177.883 107.811 178.126C107.559 178.36 107.208 178.663 106.758 179.036L104.886 180.596H109.215V182H102.637Z" fill="#101E2D"/>
<path d="M113.924 182.156C112.65 182.156 111.537 181.692 110.583 180.765L111.571 179.608C112.351 180.336 113.131 180.7 113.911 180.7C114.457 180.7 114.895 180.557 115.224 180.271C115.554 179.976 115.718 179.586 115.718 179.101C115.718 178.642 115.541 178.278 115.185 178.009C114.839 177.732 114.388 177.593 113.833 177.593C113.287 177.593 112.728 177.727 112.156 177.996L111.194 177.359L111.454 172.9H116.888V174.317H112.832L112.689 176.449C113.166 176.276 113.647 176.189 114.132 176.189C115.06 176.189 115.818 176.436 116.407 176.93C116.997 177.424 117.291 178.139 117.291 179.075C117.291 180.002 116.979 180.748 116.355 181.311C115.74 181.874 114.93 182.156 113.924 182.156Z" fill="#101E2D"/>
<path d="M122.945 182V175.136H124.505L126.65 178.321L128.808 175.136H130.368V182H128.782V177.424L126.624 180.505L124.479 177.45V182H122.945Z" fill="#101E2D"/>
<path d="M132.339 182V175.136H133.873V179.738C135.312 177.693 136.395 176.159 137.123 175.136H138.605V182H137.084V177.424L133.821 182H132.339Z" fill="#101E2D"/>
<path d="M140.578 182V175.136H142.151V177.918H145.18V175.136H146.753V182H145.18V179.231H142.151V182H140.578Z" fill="#101E2D"/>
<path d="M150.133 184.119C149.561 184.119 149.019 183.98 148.508 183.703L149.041 182.533C149.361 182.706 149.669 182.793 149.964 182.793C150.189 182.793 150.375 182.732 150.523 182.611C150.67 182.498 150.809 182.295 150.939 182L148.079 175.136H149.756L151.706 180.232L153.487 175.136H155.125L152.395 182.195C152.117 182.897 151.81 183.391 151.472 183.677C151.134 183.972 150.687 184.119 150.133 184.119Z" fill="#101E2D"/>
<path d="M157.942 182V176.488H155.732V175.136H161.738V176.488H159.528V182H157.942Z" fill="#101E2D"/>
<path d="M106.043 165.156C104.595 165.156 103.434 164.623 102.559 163.557L103.677 162.517C104.353 163.314 105.15 163.713 106.069 163.713C106.528 163.713 106.905 163.587 107.2 163.336C107.494 163.076 107.642 162.734 107.642 162.309C107.642 161.867 107.451 161.525 107.07 161.282C106.697 161.031 106.19 160.905 105.549 160.905H104.808L104.548 159.904L107.005 157.291H103.066V155.9H109.085V157.096L106.55 159.696C107.347 159.809 107.993 160.077 108.487 160.502C108.981 160.918 109.228 161.512 109.228 162.283C109.228 163.124 108.929 163.813 108.331 164.35C107.741 164.887 106.979 165.156 106.043 165.156Z" fill="#101E2D"/>
<path d="M114.729 165.156C113.55 165.156 112.597 164.71 111.869 163.817C111.141 162.916 110.777 161.793 110.777 160.45C110.777 159.124 111.145 158.01 111.882 157.109C112.627 156.199 113.585 155.744 114.755 155.744C115.925 155.744 116.874 156.195 117.602 157.096C118.338 157.997 118.707 159.115 118.707 160.45C118.707 161.776 118.334 162.894 117.589 163.804C116.852 164.705 115.899 165.156 114.729 165.156ZM113.065 162.777C113.498 163.401 114.061 163.713 114.755 163.713C115.448 163.713 116.003 163.405 116.419 162.79C116.843 162.166 117.056 161.386 117.056 160.45C117.056 159.531 116.839 158.76 116.406 158.136C115.972 157.503 115.413 157.187 114.729 157.187C114.035 157.187 113.476 157.499 113.052 158.123C112.636 158.738 112.428 159.514 112.428 160.45C112.428 161.369 112.64 162.144 113.065 162.777Z" fill="#101E2D"/>
<path d="M120.431 165V158.136H121.991V161.425L124.981 158.136H126.827L124.162 161.022L127.048 165H125.189L123.109 162.166L121.991 163.349V165H120.431Z" fill="#101E2D"/>
<path d="M128.137 165V158.136H129.697L131.842 161.321L134 158.136H135.56V165H133.974V160.424L131.816 163.505L129.671 160.45V165H128.137Z" fill="#101E2D"/>
<rect x="80" y="92" width="62" height="2" rx="1" transform="rotate(-90 80 92)" fill="#66BB46"/>
<rect x="80" y="199" width="62" height="2" rx="1" transform="rotate(-90 80 199)" fill="#66BB46"/>
<defs>
<clipPath id="clip0_161_8319">
<rect width="35" height="16" fill="white" transform="translate(25 53)"/>
</clipPath>
<clipPath id="clip1_161_8319">
<rect width="35" height="16" fill="white" transform="translate(25 160)"/>
</clipPath>
</defs>
</svg>
