<svg width="1198" height="350" viewBox="0 0 1198 350" fill="none" xmlns="http://www.w3.org/2000/svg">
<path d="M136.841 202.35C112.394 184.725 56.8992 198.906 35.9342 231.456C22.6501 252.075 27.5108 273.425 29.3515 279.963C39.2162 314.919 80.9591 344.462 108.32 336.231C127.694 330.406 134.42 307.269 141.221 283.844C148.315 259.45 160.046 219.081 136.841 202.35Z" fill="#DEEDCE"/>
<path d="M1108.78 72.0678C1090.84 83.725 1085.8 107.501 1084.59 113.234C1082.93 121.058 1079.05 139.38 1085.99 146.748C1095.49 156.82 1121.24 142.129 1135.77 121.47C1137.3 119.291 1157.2 90.4199 1149.04 74.0949C1142.52 61.0486 1121.86 63.5666 1108.78 72.0678Z" fill="#DEEDCE"/>
<path d="M757.185 158.18C745.52 160.127 728.676 156.71 721.203 170.619C716.465 179.433 718.199 188.559 718.858 191.353C722.376 206.296 737.264 218.923 747.019 215.406C753.931 212.913 769.074 194.786 774.439 177.122C777.532 166.926 767.283 156.497 757.185 158.18Z" fill="#DEEDCE"/>
<path d="M188.791 286.656C222.067 295.644 255.848 302.781 289.997 307.513C324.489 312.294 359.281 314.781 394.104 314.194C426.837 313.638 459.551 310.4 491.704 304.194C522.297 298.288 552.39 289.65 581.342 278.094C610.337 266.519 638.222 252.194 664.16 234.769C667.373 232.606 670.555 230.4 673.713 228.15C676.458 226.194 677.768 222.688 675.953 219.581C674.361 216.863 670.162 215.363 667.398 217.338C642.402 235.156 615.447 250.119 587.251 262.213C559.254 274.219 529.94 283.238 500.196 289.7C469.36 296.4 438.062 300.15 406.534 301.338C372.465 302.625 338.31 300.956 304.473 296.881C270.816 292.825 237.453 286.256 204.614 277.875C200.44 276.813 196.278 275.713 192.123 274.588C184.336 272.481 181.016 284.556 188.791 286.656Z" fill="#DEEDCE"/>
<path d="M825.862 159.187C828.733 157.968 831.617 156.769 834.507 155.589C833.983 155.803 833.459 156.011 832.941 156.226C851.045 148.872 869.548 142.426 888.346 136.928C907.02 131.467 925.983 126.934 945.135 123.355C955.983 121.328 966.896 119.605 977.849 118.191C977.265 118.266 976.682 118.342 976.105 118.418C993.488 116.183 1010.97 114.706 1028.49 114.037C1033.46 113.847 1038.45 113.721 1043.43 113.652C1046.86 113.608 1050.15 110.773 1049.99 107.326C1049.84 103.936 1047.11 100.95 1043.43 101.001C1028.55 101.196 1013.7 101.954 998.882 103.28C983.63 104.643 968.417 106.594 953.322 109.1C938.731 111.524 924.239 114.498 909.891 118.008C895.478 121.537 881.209 125.608 867.123 130.223C852.631 134.971 838.361 140.305 824.302 146.132C822.611 146.832 820.92 147.546 819.235 148.259C817.826 148.859 816.607 150.677 816.22 152.041C815.788 153.556 815.984 155.57 816.882 156.914C817.787 158.265 819.13 159.452 820.808 159.818C822.631 160.229 824.158 159.913 825.862 159.187Z" fill="#DEEDCE"/>
<path d="M0 145.737H14.6505V148.85H3.46921V153.994H13.3777V157.106H3.46921V162.425H14.7878V165.537H0V145.737Z" fill="#121E2D"/>
<path d="M18.5195 150.6H21.9076V157.756L28.403 150.6H32.4088L26.6247 156.875L32.8893 165.525H28.8523L24.3348 159.369L21.9076 161.944V165.537H18.5195V150.6Z" fill="#121E2D"/>
<path d="M43.8141 165.531V163.694C42.7971 164.912 41.2434 165.844 38.9847 165.844C36.1644 165.844 33.6748 164.231 33.6748 161.181C33.6748 157.875 36.2455 156.287 39.7147 156.287C41.5242 156.287 42.6785 156.544 43.8328 156.912V156.631C43.8328 154.569 42.535 153.437 40.164 153.437C38.498 153.437 37.2563 153.806 35.9023 154.369L34.9726 151.625C36.6074 150.887 38.2172 150.381 40.6444 150.381C45.0496 150.381 47.196 152.7 47.196 156.687V165.537H43.8141V165.531ZM43.9015 159.281C43.0279 158.944 41.8112 158.687 40.4884 158.687C38.342 158.687 37.0754 159.562 37.0754 161.062C37.0754 162.475 38.3483 163.269 39.9518 163.269C42.2106 163.269 43.9015 161.994 43.9015 160.131V159.281Z" fill="#121E2D"/>
<path d="M54.4594 153.544H49.6611V150.6H62.7019V153.544H57.9036V165.531H54.4594V153.544Z" fill="#121E2D"/>
<path d="M64.0303 158.069C64.0303 153.8 67.0502 150.294 71.3119 150.294C76.0539 150.294 78.4562 154.025 78.4562 158.325C78.4562 158.55 78.425 159.119 78.4 159.287H67.4496C67.8177 161.719 69.5398 163.075 71.7424 163.075C73.4084 163.075 74.5939 162.45 75.7794 161.294L77.7823 163.075C76.3722 164.769 74.4254 165.875 71.6862 165.875C67.3622 165.875 64.0303 162.731 64.0303 158.069ZM75.0681 157.019C74.8435 154.812 73.5456 153.087 71.2869 153.087C69.1966 153.087 67.7303 154.7 67.4184 157.019H75.0681Z" fill="#121E2D"/>
<path d="M81.9004 150.6H85.3134V153.087C86.4116 151.531 87.9653 150.287 90.3675 150.287C93.8991 150.287 97.3122 153.087 97.3122 158.094C97.3122 163.044 93.9241 165.844 90.3675 165.844C87.9091 165.844 86.3617 164.6 85.3134 163.212V170.056H81.9004V150.6ZM93.8367 158.037C93.8367 155.156 91.89 153.256 89.5751 153.256C87.2602 153.256 85.2261 155.181 85.2261 158.094C85.2261 160.975 87.2602 162.875 89.5751 162.875C91.9212 162.875 93.8367 161.037 93.8367 158.037Z" fill="#121E2D"/>
<path d="M100.812 150.6H104.144V160.612C106.484 157.275 108.83 153.937 111.201 150.6H114.421V165.531H111.12V155.575L104.032 165.531H100.812V150.6Z" fill="#121E2D"/>
<path d="M118.714 150.6H122.127V156.65H128.703V150.6H132.116V165.531H128.703V159.506H122.127V165.531H118.714V150.6Z" fill="#121E2D"/>
<path d="M135.961 157.162C135.961 152.525 136.498 147.862 141.92 146.731L150.05 145.037L150.611 147.781L142.481 149.562C139.605 150.187 138.725 151.825 138.557 153.806C139.318 152.506 141.183 151.006 144.285 151.006C148.122 151.006 151.398 154.175 151.398 158.275C151.398 162.4 148.122 165.881 143.636 165.881C138.812 165.875 135.961 162.675 135.961 157.162ZM147.991 158.325C147.991 155.781 146.125 153.719 143.642 153.719C141.127 153.719 139.38 155.756 139.38 158.325C139.38 160.869 141.246 162.906 143.698 162.906C146.269 162.9 147.991 160.869 147.991 158.325Z" fill="#121E2D"/>
<path d="M153.837 169.237L154.992 166.694C155.616 167.031 156.289 167.256 156.995 167.256C157.955 167.256 158.548 166.831 159.11 165.531L152.901 150.6H156.545L160.782 161.681L164.651 150.6H168.207L162.279 165.956C161.094 169.012 159.765 170.137 157.369 170.137C155.921 170.144 154.879 169.8 153.837 169.237Z" fill="#121E2D"/>
<path d="M171.14 150.6H174.553V153.087C175.651 151.531 177.205 150.287 179.607 150.287C183.138 150.287 186.551 153.087 186.551 158.094C186.551 163.044 183.163 165.844 179.607 165.844C177.148 165.844 175.601 164.6 174.553 163.212V170.056H171.14V150.6ZM183.082 158.037C183.082 155.156 181.135 153.256 178.821 153.256C176.506 153.256 174.472 155.181 174.472 158.094C174.472 160.975 176.506 162.875 178.821 162.875C181.16 162.875 183.082 161.037 183.082 158.037Z" fill="#121E2D"/>
<path d="M190.058 150.6H200.615V153.544H193.471V165.531H190.058V150.6Z" fill="#121E2D"/>
<path d="M1050.32 19.4437H1053.54L1062.23 39.375H1058.56L1056.56 34.5937H1047.22L1045.19 39.375H1041.63L1050.32 19.4437ZM1055.29 31.5187L1051.88 23.6L1048.49 31.5187H1055.29Z" fill="#121E2D"/>
<path d="M1063.11 39.35L1063.37 36.55C1063.59 36.6062 1064.13 36.6625 1064.35 36.6625C1066.08 36.6625 1067.26 35.8125 1067.26 24.45H1078.52V39.375H1075.11V27.3875H1070.45C1070.45 38.2187 1068.42 39.5437 1065.12 39.5437C1064.58 39.5437 1063.62 39.4312 1063.11 39.35Z" fill="#121E2D"/>
<path d="M1091.93 39.375V37.5375C1090.92 38.7562 1089.36 39.6875 1087.1 39.6875C1084.28 39.6875 1081.79 38.075 1081.79 35.025C1081.79 31.7187 1084.36 30.1312 1087.83 30.1312C1089.64 30.1312 1090.8 30.3875 1091.95 30.7562V30.475C1091.95 28.4125 1090.65 27.2812 1088.28 27.2812C1086.62 27.2812 1085.38 27.65 1084.02 28.2125L1083.09 25.4687C1084.73 24.7312 1086.34 24.225 1088.76 24.225C1093.17 24.225 1095.32 26.5437 1095.32 30.5312V39.375H1091.93ZM1092.02 33.125C1091.15 32.7875 1089.93 32.5312 1088.61 32.5312C1086.46 32.5312 1085.19 33.4062 1085.19 34.9062C1085.19 36.3187 1086.47 37.1125 1088.07 37.1125C1090.33 37.1125 1092.02 35.8375 1092.02 33.975V33.125Z" fill="#121E2D"/>
<path d="M1099.39 24.45H1112.69V39.375H1109.27V27.3875H1102.81V39.375H1099.4V24.45H1099.39Z" fill="#121E2D"/>
<path d="M1126.1 39.375V37.5375C1125.08 38.7562 1123.52 39.6875 1121.27 39.6875C1118.45 39.6875 1115.96 38.075 1115.96 35.025C1115.96 31.7187 1118.53 30.1312 1122 30.1312C1123.81 30.1312 1124.96 30.3875 1126.11 30.7562V30.475C1126.11 28.4125 1124.82 27.2812 1122.45 27.2812C1120.78 27.2812 1119.54 27.65 1118.18 28.2125L1117.25 25.4687C1118.89 24.7312 1120.5 24.225 1122.93 24.225C1127.33 24.225 1129.48 26.5437 1129.48 30.5312V39.375H1126.1ZM1126.18 33.125C1125.31 32.7875 1124.09 32.5312 1122.77 32.5312C1120.62 32.5312 1119.36 33.4062 1119.36 34.9062C1119.36 36.3187 1120.63 37.1125 1122.23 37.1125C1124.49 37.1125 1126.18 35.8375 1126.18 33.975V33.125Z" fill="#121E2D"/>
<path d="M1132.73 31.9125C1132.73 27.6437 1135.75 24.1375 1140.01 24.1375C1144.75 24.1375 1147.15 27.8687 1147.15 32.1687C1147.15 32.3937 1147.13 32.9625 1147.1 33.1312H1136.15C1136.51 35.5625 1138.24 36.9187 1140.44 36.9187C1142.11 36.9187 1143.29 36.2937 1144.48 35.1375L1146.48 36.9187C1145.07 38.6125 1143.12 39.7187 1140.38 39.7187C1136.06 39.7187 1132.73 36.575 1132.73 31.9125ZM1143.77 30.8687C1143.54 28.6625 1142.24 26.9375 1139.98 26.9375C1137.89 26.9375 1136.43 28.55 1136.12 30.8687H1143.77Z" fill="#121E2D"/>
<path d="M1150.6 24.45H1158.25C1161.21 24.45 1163.16 25.8937 1163.16 28.1812C1163.16 30.075 1162.03 31.0375 1160.76 31.6C1162.56 32.1062 1163.83 33.2125 1163.83 35.3312C1163.83 37.85 1161.72 39.375 1158.33 39.375H1150.59V24.45H1150.6ZM1157.46 30.6125C1158.9 30.6125 1159.69 29.85 1159.69 28.775C1159.69 27.8125 1159.04 27.0812 1157.52 27.0812H1153.96V30.6187H1157.46V30.6125ZM1157.83 36.6625C1159.5 36.6625 1160.37 35.9 1160.37 34.7375C1160.37 33.6625 1159.5 32.925 1157.66 32.925H1153.96V36.6562H1157.83V36.6625Z" fill="#121E2D"/>
<path d="M1166.44 31.9937V31.9375C1166.44 27.6937 1169.72 24.1312 1174.18 24.1312C1177 24.1312 1178.75 25.175 1180.14 26.7062L1178.02 28.9937C1176.98 27.8937 1175.87 27.125 1174.15 27.125C1171.67 27.125 1169.86 29.275 1169.86 31.875V31.9312C1169.86 34.5875 1171.69 36.7375 1174.32 36.7375C1175.93 36.7375 1177.12 35.975 1178.19 34.8687L1180.25 36.9062C1178.78 38.5437 1177.06 39.7062 1174.15 39.7062C1169.72 39.7187 1166.44 36.2375 1166.44 31.9937Z" fill="#121E2D"/>
<path d="M1183.24 24.45H1186.63V31.6062L1193.12 24.45H1197.13L1191.34 30.7249L1197.61 39.375H1193.57L1189.05 33.2125L1186.63 35.7874V39.3812H1183.24V24.45Z" fill="#121E2D"/>
<path d="M691.426 232.994H706.158V236.131H694.864V240.681H700.367C704.716 240.681 707.537 242.856 707.537 246.675C707.537 250.631 704.716 252.781 700.199 252.781H691.42V232.994H691.426ZM699.444 249.675C702.439 249.675 704.074 248.969 704.074 246.538C704.074 244.613 702.632 243.625 700.068 243.625H694.87V249.675H699.444Z" fill="#121E2D"/>
<path d="M710.257 245.319C710.257 241.05 713.277 237.544 717.538 237.544C722.281 237.544 724.683 241.275 724.683 245.575C724.683 245.8 724.652 246.369 724.627 246.538H713.676C714.044 248.969 715.766 250.325 717.969 250.325C719.635 250.325 720.82 249.7 722.006 248.544L724.009 250.325C722.599 252.019 720.652 253.125 717.913 253.125C713.589 253.125 710.257 249.988 710.257 245.319ZM721.295 244.275C721.07 242.069 719.772 240.344 717.513 240.344C715.423 240.344 713.957 241.956 713.645 244.275H721.295Z" fill="#121E2D"/>
<path d="M728.127 237.856H738.684V240.8H731.546V252.788H728.133V237.856H728.127Z" fill="#121E2D"/>
<path d="M739.733 245.35C739.733 241.081 743.121 237.544 747.695 237.544C752.269 237.544 755.626 241.019 755.626 245.35C755.626 249.594 752.238 253.125 747.639 253.125C743.09 253.125 739.733 249.644 739.733 245.35ZM752.206 245.35C752.206 242.719 750.316 240.544 747.633 240.544C744.894 240.544 743.146 242.694 743.146 245.35C743.146 247.95 745.037 250.156 747.689 250.156C750.459 250.156 752.206 247.975 752.206 245.35Z" fill="#121E2D"/>
<path d="M759.101 237.856H766.751C769.715 237.856 771.661 239.3 771.661 241.588C771.661 243.481 770.532 244.444 769.259 245.006C771.069 245.513 772.335 246.619 772.335 248.738C772.335 251.256 770.22 252.781 766.832 252.781H759.095V237.856H759.101ZM765.958 244.019C767.4 244.019 768.186 243.256 768.186 242.181C768.186 241.219 767.537 240.488 766.014 240.488H762.458V244.019H765.958ZM766.326 250.069C767.992 250.069 768.866 249.306 768.866 248.144C768.866 247.069 767.992 246.331 766.158 246.331H762.458V250.063H766.326V250.069Z" fill="#121E2D"/>
<path d="M774.937 245.35C774.937 241.081 778.325 237.544 782.898 237.544C787.472 237.544 790.829 241.019 790.829 245.35C790.829 249.594 787.441 253.125 782.842 253.125C778.293 253.125 774.937 249.644 774.937 245.35ZM787.416 245.35C787.416 242.719 785.525 240.544 782.842 240.544C780.103 240.544 778.356 242.694 778.356 245.35C778.356 247.95 780.246 250.156 782.898 250.156C785.662 250.156 787.416 247.975 787.416 245.35Z" fill="#121E2D"/>
<path d="M793.487 245.319C793.487 241.05 796.507 237.544 800.769 237.544C805.511 237.544 807.913 241.275 807.913 245.575C807.913 245.8 807.882 246.369 807.857 246.538H796.907C797.275 248.969 798.997 250.325 801.199 250.325C802.865 250.325 804.051 249.7 805.236 248.544L807.239 250.325C805.829 252.019 803.882 253.125 801.143 253.125C796.813 253.125 793.487 249.988 793.487 245.319ZM804.525 244.275C804.3 242.069 803.003 240.344 800.744 240.344C798.654 240.344 797.187 241.956 796.875 244.275H804.525Z" fill="#121E2D"/>
<path d="M359.456 345.538L359.924 333.275L357.353 334.044L357.116 333.263L360.167 332.269L360.922 332.3L360.417 345.581L359.456 345.538Z" fill="#121E2D"/>
<path d="M363.243 345.688L363.262 344.95L368.279 340.625C369.395 339.656 370.175 338.85 370.618 338.2C371.061 337.55 371.292 336.881 371.305 336.188C371.323 335.356 371.049 334.675 370.481 334.131C369.913 333.588 369.221 333.306 368.403 333.288C367.598 333.269 366.893 333.45 366.288 333.838C365.683 334.225 365.084 334.825 364.485 335.644L363.761 335.138C364.41 334.2 365.096 333.506 365.808 333.056C366.519 332.606 367.424 332.4 368.516 332.425C369.633 332.45 370.556 332.825 371.286 333.538C372.016 334.25 372.365 335.131 372.34 336.175C372.322 337.044 372.06 337.825 371.561 338.531C371.061 339.238 370.182 340.131 368.927 341.219L364.809 344.775L372.259 344.956L372.234 345.9L363.243 345.688Z" fill="#121E2D"/>
<path d="M380.04 346.206C378.412 346.2 377.095 345.531 376.109 344.2C375.117 342.869 374.631 341.256 374.637 339.356C374.643 338.138 374.868 337.013 375.311 335.988C375.754 334.963 376.403 334.131 377.251 333.5C378.1 332.869 379.067 332.556 380.146 332.563C381.775 332.569 383.085 333.238 384.077 334.569C385.069 335.9 385.556 337.513 385.55 339.413C385.544 340.631 385.319 341.756 384.876 342.781C384.433 343.813 383.784 344.638 382.935 345.269C382.081 345.9 381.12 346.213 380.04 346.206ZM376.871 343.531C377.694 344.719 378.761 345.313 380.078 345.319C381.394 345.325 382.467 344.744 383.285 343.575C384.108 342.406 384.52 341.013 384.527 339.406C384.533 337.8 384.127 336.406 383.304 335.225C382.48 334.044 381.413 333.45 380.096 333.444C378.78 333.438 377.707 334.019 376.889 335.181C376.066 336.344 375.654 337.738 375.648 339.363C375.641 340.956 376.047 342.35 376.871 343.531Z" fill="#121E2D"/>
<path d="M394.048 345.906L393.823 336.294L394.747 336.269L394.89 342.431L400.693 336.125L401.916 336.094L397.823 340.45L402.278 345.7L401.111 345.725L397.199 341.119L394.921 343.531L394.978 345.869L394.048 345.906Z" fill="#121E2D"/>
<path d="M404.45 345.638L404.038 336.031L404.868 335.994L409.017 341.344L412.692 335.656L413.522 335.619L413.934 345.225L413.011 345.263L412.667 337.256L409.042 342.738L404.999 337.594L405.342 345.6L404.45 345.638Z" fill="#121E2D"/>
<path d="M421.065 347.238L428.671 329.188L429.589 329.119L421.983 347.169L421.065 347.238Z" fill="#121E2D"/>
<path d="M439.597 343.313L438.418 331.094L435.972 332.2L435.635 331.456L438.524 330.056L439.272 329.981L440.552 343.213L439.597 343.313Z" fill="#121E2D"/>
<path d="M443.928 344.906L443.653 344.463C444.315 344.038 444.614 343.544 444.558 342.981L444.539 342.813L444.034 342.869L443.865 341.275L445.101 341.144L445.251 342.531C445.313 343.119 445.244 343.594 445.045 343.956C444.839 344.313 444.471 344.631 443.928 344.906Z" fill="#121E2D"/>
<path d="M452.439 342.144C451.59 342.244 450.748 342.15 449.899 341.85C449.057 341.556 448.289 341.131 447.603 340.581L448.208 339.806C449.643 340.938 451.029 341.419 452.364 341.263C453.387 341.138 454.186 340.719 454.772 340.006C455.353 339.288 455.59 338.456 455.477 337.506C455.365 336.594 454.947 335.888 454.211 335.394C453.475 334.894 452.576 334.706 451.515 334.838C450.554 334.95 449.606 335.35 448.664 336.019L447.859 335.625L447.466 329.238L454.81 328.35L454.922 329.288L448.439 330.069L448.714 335.013C449.631 334.419 450.567 334.069 451.522 333.95C452.807 333.794 453.918 334.038 454.86 334.675C455.802 335.313 456.345 336.219 456.488 337.394C456.638 338.631 456.326 339.694 455.565 340.581C454.797 341.456 453.755 341.981 452.439 342.144Z" fill="#121E2D"/>
<path d="M465.804 340.131L465.217 335.969C464.818 336.281 464.312 336.581 463.707 336.869C463.102 337.156 462.515 337.344 461.941 337.425C460.987 337.563 460.194 337.431 459.576 337.038C458.959 336.644 458.584 336 458.46 335.1L457.954 331.538L458.865 331.406L459.37 334.988C459.452 335.575 459.707 336.006 460.138 336.3C460.562 336.588 461.111 336.688 461.785 336.588C462.359 336.506 462.946 336.325 463.563 336.044C464.175 335.763 464.687 335.431 465.086 335.056L464.462 330.613L465.373 330.481L466.714 340L465.804 340.131Z" fill="#121E2D"/>
<path d="M473.023 339.25C471.981 339.419 471.07 339.294 470.284 338.881C469.497 338.469 469.029 337.781 468.873 336.825C468.717 335.856 468.973 335.037 469.641 334.369C470.309 333.7 471.269 333.263 472.517 333.063C473.584 332.894 474.651 332.856 475.724 332.962L475.656 332.556C475.506 331.613 475.113 330.937 474.489 330.531C473.865 330.125 473.054 330 472.068 330.162C471.076 330.325 470.128 330.737 469.217 331.406L468.755 330.662C469.841 329.925 470.92 329.469 471.987 329.3C473.285 329.087 474.339 329.275 475.144 329.856C475.893 330.4 476.361 331.237 476.542 332.381L477.497 338.3L476.604 338.444L476.348 336.862C475.7 338.2 474.589 339 473.023 339.25ZM472.942 338.387C473.934 338.225 474.732 337.812 475.344 337.15C475.955 336.487 476.192 335.731 476.055 334.887L475.88 333.806C474.72 333.7 473.628 333.731 472.598 333.9C471.606 334.062 470.876 334.387 470.402 334.875C469.928 335.362 469.747 335.956 469.859 336.65C469.972 337.331 470.302 337.825 470.864 338.131C471.419 338.431 472.112 338.519 472.942 338.387Z" fill="#121E2D"/>
<path d="M484.915 337.206C483.555 337.456 482.326 337.181 481.228 336.388C480.123 335.594 479.45 334.506 479.2 333.138C478.95 331.775 479.206 330.525 479.961 329.388C480.716 328.244 481.764 327.556 483.112 327.306C484.578 327.038 485.939 327.394 487.193 328.381L486.681 329.144C485.477 328.288 484.335 327.963 483.249 328.163C482.201 328.356 481.378 328.919 480.772 329.863C480.173 330.8 479.974 331.838 480.18 332.963C480.385 334.1 480.941 335 481.839 335.656C482.738 336.319 483.73 336.544 484.816 336.35C485.939 336.144 486.887 335.419 487.648 334.163L488.422 334.631C487.555 336.075 486.382 336.938 484.915 337.206Z" fill="#121E2D"/>
<path d="M494.119 335.425C493.083 335.638 492.172 335.55 491.367 335.169C490.562 334.788 490.069 334.119 489.876 333.175C489.682 332.213 489.901 331.388 490.544 330.694C491.186 330 492.122 329.525 493.364 329.269C494.418 329.056 495.485 328.975 496.565 329.038L496.484 328.631C496.296 327.694 495.878 327.038 495.236 326.656C494.593 326.275 493.782 326.181 492.796 326.381C491.81 326.581 490.881 327.038 490.001 327.738L489.508 327.013C490.569 326.231 491.623 325.738 492.684 325.519C493.975 325.256 495.036 325.4 495.866 325.95C496.633 326.463 497.133 327.281 497.363 328.413L498.555 334.288L497.669 334.469L497.351 332.9C496.746 334.269 495.666 335.113 494.119 335.425ZM494 334.569C494.986 334.369 495.766 333.925 496.353 333.231C496.933 332.544 497.145 331.781 496.97 330.938L496.752 329.869C495.585 329.813 494.493 329.888 493.476 330.094C492.49 330.294 491.773 330.65 491.317 331.156C490.862 331.669 490.706 332.269 490.849 332.956C490.987 333.631 491.342 334.113 491.91 334.394C492.478 334.675 493.177 334.731 494 334.569Z" fill="#121E2D"/>
<path d="M869.321 179.387C867.461 180.137 865.664 180.006 863.948 178.994L864.416 178.137C865.964 179.031 867.499 179.175 869.009 178.562C869.857 178.219 870.469 177.675 870.849 176.925C871.224 176.175 871.255 175.4 870.931 174.594C870.594 173.756 869.982 173.244 869.09 173.062C868.198 172.881 867.187 173.019 866.057 173.469L865.396 173.737L864.966 173.319L867.218 166.763L860.81 169.344L860.467 168.487L868.116 165.406L868.379 166.056L866.145 172.463C866.706 172.275 867.255 172.163 867.798 172.113C868.341 172.063 868.878 172.081 869.414 172.169C869.951 172.256 870.438 172.475 870.874 172.819C871.311 173.162 871.648 173.631 871.879 174.212C872.297 175.25 872.247 176.263 871.729 177.25C871.199 178.238 870.4 178.95 869.321 179.387Z" fill="#121E2D"/>
<path d="M880.702 174.919C879.179 175.5 877.713 175.35 876.309 174.469C874.905 173.588 873.863 172.256 873.189 170.488C872.759 169.35 872.559 168.219 872.603 167.1C872.646 165.981 872.952 164.975 873.52 164.075C874.088 163.181 874.874 162.538 875.878 162.156C877.401 161.575 878.867 161.725 880.271 162.606C881.675 163.488 882.717 164.819 883.391 166.588C883.821 167.725 884.021 168.856 883.977 169.975C883.934 171.094 883.628 172.1 883.066 173C882.499 173.894 881.712 174.531 880.702 174.919ZM876.783 173.569C877.975 174.375 879.192 174.544 880.421 174.075C881.65 173.606 882.436 172.675 882.786 171.288C883.129 169.9 883.016 168.45 882.442 166.95C881.868 165.45 880.989 164.294 879.797 163.494C878.605 162.694 877.395 162.525 876.165 162.994C874.936 163.463 874.144 164.388 873.801 165.775C873.451 167.156 873.57 168.606 874.144 170.125C874.712 171.613 875.591 172.763 876.783 173.569Z" fill="#121E2D"/>
<path d="M893.749 169.863L890.623 160.775L891.497 160.475L893.499 166.306L897.118 158.538L898.273 158.138L895.69 163.538L901.524 167.188L900.419 167.569L895.296 164.369L893.855 167.356L894.616 169.569L893.749 169.863Z" fill="#121E2D"/>
<path d="M903.582 166.494L900.693 157.325L901.486 157.075L906.877 161.163L908.948 154.713L909.741 154.463L912.63 163.631L911.75 163.906L909.341 156.263L907.257 162.494L902.016 158.575L904.425 166.219L903.582 166.494Z" fill="#121E2D"/>
<path d="M919.893 164.013L923.942 144.844L924.834 144.606L920.785 163.775L919.893 164.013Z" fill="#121E2D"/>
<path d="M934.905 157.613L934.743 156.894L938.574 151.481C939.423 150.275 939.984 149.306 940.259 148.569C940.533 147.831 940.596 147.125 940.446 146.45C940.265 145.638 939.835 145.044 939.148 144.65C938.462 144.263 937.725 144.156 936.927 144.331C936.141 144.506 935.504 144.856 935.011 145.375C934.518 145.9 934.075 146.625 933.695 147.563L932.871 147.244C933.277 146.175 933.77 145.338 934.356 144.731C934.943 144.125 935.766 143.706 936.833 143.469C937.925 143.225 938.905 143.363 939.791 143.881C940.671 144.4 941.226 145.169 941.451 146.188C941.638 147.038 941.575 147.863 941.257 148.663C940.939 149.469 940.302 150.55 939.348 151.906L936.209 156.35L943.485 154.731L943.691 155.65L934.905 157.613Z" fill="#121E2D"/>
<path d="M950.385 154.581C949.549 154.738 948.694 154.7 947.833 154.463C946.972 154.225 946.18 153.85 945.456 153.35L946.011 152.538C947.521 153.569 948.937 153.963 950.254 153.713C951.265 153.519 952.039 153.05 952.575 152.294C953.112 151.538 953.286 150.694 953.112 149.756C952.943 148.856 952.475 148.181 951.708 147.731C950.94 147.281 950.029 147.156 948.981 147.356C948.033 147.538 947.109 147.994 946.211 148.725L945.381 148.381L944.563 142.031L951.833 140.656L952.007 141.581L945.587 142.794L946.186 147.706C947.059 147.056 947.97 146.638 948.919 146.463C950.185 146.225 951.315 146.388 952.301 146.963C953.286 147.538 953.885 148.406 954.104 149.569C954.335 150.794 954.098 151.875 953.393 152.813C952.694 153.738 951.689 154.331 950.385 154.581Z" fill="#121E2D"/>
<path d="M963.101 152.15L961.772 142.625L962.59 142.512L967.232 147.438L970.346 141.425L971.169 141.312L972.498 150.838L971.587 150.963L970.477 143.025L967.388 148.825L962.871 144.088L963.981 152.025L963.101 152.15Z" fill="#121E2D"/>
<path d="M975.874 150.425L974.826 140.869L975.743 140.769L976.654 149.106L982.214 140.056L983.131 139.956L984.179 149.513L983.262 149.613L982.351 141.275L976.792 150.325L975.874 150.425Z" fill="#121E2D"/>
<path d="M987.573 149.188L986.762 139.606L987.679 139.525L988.041 143.788L994.399 143.244L994.037 138.981L994.954 138.9L995.765 148.481L994.848 148.563L994.468 144.075L988.109 144.613L988.49 149.1L987.573 149.188Z" fill="#121E2D"/>
<path d="M1000.56 151.231C999.922 151.275 999.279 151.175 998.636 150.938L998.905 150.106C999.41 150.313 999.959 150.394 1000.56 150.356C1001.06 150.325 1001.49 150.125 1001.83 149.763C1002.17 149.4 1002.49 148.794 1002.79 147.944L997.569 138.7L998.643 138.631L1003.18 146.95L1006.08 138.15L1007.1 138.088L1003.58 148.288C1003.23 149.294 1002.82 150.019 1002.34 150.475C1001.85 150.938 1001.26 151.188 1000.56 151.231Z" fill="#121E2D"/>
<path d="M1012.61 147.444L1012.18 138.669L1008.59 138.844L1008.56 138.013L1016.66 137.613L1016.69 138.438L1013.11 138.613L1013.54 147.388L1012.61 147.444Z" fill="#121E2D"/>
<path d="M303.662 279.031C303.861 277.669 304.061 276.306 304.261 274.95C304.03 273.594 303.169 272.856 301.927 272.35C299.681 271.437 297.484 270.412 295.263 269.45C294.882 269.281 294.602 269.044 294.402 268.675C293.229 266.531 292.019 264.406 290.858 262.256C290.14 260.931 289.073 260.187 287.582 259.975C282.722 259.275 277.867 258.562 273.019 257.825C271.39 257.581 270.086 258.056 269.032 259.319C267.659 260.956 266.255 262.569 264.876 264.2C264.608 264.519 264.302 264.719 263.903 264.831C262.493 265.225 261.089 265.631 259.685 266.056C258.662 266.362 257.994 267.037 257.801 268.094C257.582 269.294 257.433 270.512 257.264 271.719C257.183 272.281 257.314 272.812 257.582 273.306C258.094 274.244 258.936 274.612 259.953 274.719C260.733 274.8 260.727 274.825 260.983 274.125C261.875 271.631 264.508 270.131 267.173 270.587C269.718 271.025 271.759 273.406 271.734 275.975C271.727 276.4 271.865 276.475 272.22 276.525C277.636 277.312 283.052 278.106 288.462 278.925C288.936 278.994 289.13 278.919 289.286 278.437C290.097 275.925 292.661 274.362 295.276 274.725C298.021 275.112 300.086 277.519 300.068 280.287C300.068 280.431 300.011 280.6 300.236 280.65C301.191 280.856 302.083 280.769 302.863 280.106C303.206 279.806 303.375 279.375 303.662 279.031Z" fill="#68BC47"/>
<path d="M266.049 279.975C266.492 279.869 266.948 279.888 267.385 279.744C269.044 279.188 269.98 277.763 270.049 276.406C270.149 274.488 269.275 273.125 267.603 272.413C265.282 271.425 262.53 273.131 262.299 275.638C262.131 277.444 263.298 279.275 265.076 279.763C265.132 279.775 265.182 279.825 265.232 279.856C265.506 279.894 265.781 279.938 266.049 279.975Z" fill="#68BC47"/>
<path d="M294.377 284.15C294.445 284.131 294.52 284.1 294.589 284.1C296.586 284.069 298.208 282.563 298.383 280.631C298.576 278.444 297.135 276.65 295.057 276.356C293.129 276.088 291.207 277.356 290.758 279.131C290.19 281.363 291.5 283.375 293.366 283.925C293.435 283.944 293.497 283.994 293.566 284.031C293.828 284.069 294.102 284.113 294.377 284.15Z" fill="#68BC47"/>
</svg>
